<?xml version="1.0" standalone="no"?>
<!DOCTYPE svg PUBLIC "-//W3C//DTD SVG 20010904//EN"
 "http://www.w3.org/TR/2001/REC-SVG-20010904/DTD/svg10.dtd">
<svg version="1.0" xmlns="http://www.w3.org/2000/svg"
 width="1024.000000pt" height="1024.000000pt" viewBox="0 0 1024.000000 1024.000000"
 preserveAspectRatio="xMidYMid meet">

<g transform="translate(0.000000,1024.000000) scale(0.100000,-0.100000)"
fill="#000000" stroke="none">
<path d="M3188 5990 c-61 -10 -144 -56 -174 -95 -47 -62 -58 -103 -63 -245
l-6 -135 -77 -3 -78 -3 0 -104 0 -105 80 0 80 0 0 -405 0 -406 116 3 116 3 -1
403 -1 402 110 0 110 0 0 105 0 105 -105 0 c-85 0 -107 3 -111 15 -4 8 -2 54
4 102 9 79 13 90 41 115 25 23 41 28 81 28 27 0 60 -4 74 -10 l26 -10 0 119 0
118 -52 7 c-64 7 -108 6 -170 -4z"/>
<path d="M1128 5927 c-166 -57 -267 -175 -287 -337 -20 -160 37 -287 171 -378
59 -40 109 -62 273 -118 191 -66 255 -110 269 -188 18 -94 -45 -180 -154 -210
-152 -43 -285 25 -321 164 l-13 49 -125 -6 c-69 -3 -128 -7 -130 -9 -8 -7 29
-137 51 -182 29 -58 88 -124 145 -163 131 -90 368 -112 534 -49 171 64 279
231 266 409 -7 94 -26 150 -74 213 -67 87 -163 144 -353 208 -154 52 -210 80
-244 120 -32 39 -40 68 -33 125 10 94 77 146 195 153 70 4 82 1 132 -25 48
-25 59 -37 85 -91 l30 -63 85 6 c47 3 104 8 126 11 l42 6 -15 56 c-42 162
-145 265 -306 308 -30 8 -100 14 -167 14 -93 0 -128 -5 -182 -23z"/>
<path d="M5110 5205 l0 -715 126 0 126 0 -4 510 c-1 281 -3 510 -2 510 0 0
115 -229 254 -510 l254 -510 148 0 148 0 0 715 0 715 -125 0 -126 0 3 -519 c2
-286 1 -517 -2 -515 -3 3 -118 236 -256 517 l-250 512 -147 3 -147 3 0 -716z"/>
<path d="M2204 5536 c-78 -18 -115 -37 -171 -89 -53 -48 -92 -120 -102 -188
l-8 -49 113 0 112 0 11 33 c7 19 25 47 41 62 38 37 128 47 179 20 43 -22 70
-83 71 -156 l0 -57 -147 -4 c-122 -4 -158 -9 -204 -27 -76 -29 -141 -89 -176
-159 -38 -76 -40 -200 -5 -277 30 -66 93 -128 156 -156 72 -32 192 -32 261 -1
53 25 115 77 115 99 0 7 4 13 8 13 5 0 13 -24 18 -52 l9 -53 100 -3 101 -3 -4
403 c-2 242 -7 417 -14 438 -16 55 -65 126 -106 152 -86 57 -242 80 -358 54z
m246 -648 c0 -90 -14 -131 -60 -171 -108 -98 -260 -52 -260 78 0 106 72 152
243 154 l77 1 0 -62z"/>
<path d="M3800 5539 c-69 -12 -146 -47 -191 -87 -45 -40 -97 -136 -105 -196
l-7 -46 116 0 115 0 7 27 c18 73 73 108 160 101 87 -7 122 -51 126 -158 l3
-65 -145 -6 c-185 -8 -250 -30 -327 -107 -84 -84 -110 -216 -67 -342 25 -74
101 -150 175 -176 126 -43 264 -13 340 74 30 34 40 40 40 26 0 -10 5 -36 11
-56 l10 -38 100 0 101 0 -4 398 c-3 352 -6 403 -22 446 -51 140 -138 199 -309
210 -40 3 -97 0 -127 -5z m220 -664 c0 -121 -52 -192 -153 -210 -141 -24 -225
155 -112 240 39 30 93 42 193 44 l72 1 0 -75z"/>
<path d="M4827 5534 c-47 -15 -114 -70 -149 -124 -17 -25 -17 -24 -17 43 l-1
67 -120 0 -120 0 0 -515 0 -515 120 0 120 0 0 333 c0 325 1 334 23 377 33 66
75 90 157 90 37 0 88 -6 113 -14 l47 -14 0 134 0 133 -37 10 c-49 14 -77 13
-136 -5z"/>
<path d="M6613 5535 c-153 -34 -256 -139 -279 -283 l-7 -42 114 0 114 0 19 46
c25 60 63 84 137 84 93 0 138 -51 142 -163 l2 -62 -145 -6 c-190 -9 -247 -28
-326 -111 -61 -63 -77 -101 -82 -194 -10 -182 83 -306 249 -334 114 -19 212
12 282 89 41 46 46 48 45 24 -1 -10 2 -35 6 -55 l7 -38 102 0 102 0 -3 377
c-1 208 -7 401 -12 428 -23 112 -100 199 -204 230 -75 23 -190 27 -263 10z
m243 -666 c-4 -45 -13 -94 -21 -109 -43 -83 -157 -120 -238 -78 -59 31 -76
144 -31 197 46 55 87 68 218 70 l79 1 -7 -81z"/>
<path d="M7675 5537 c-62 -21 -86 -36 -137 -85 l-48 -46 0 57 0 57 -120 0
-120 0 0 -515 0 -515 120 0 120 0 0 360 c0 340 1 363 20 400 27 53 72 83 135
88 65 5 106 -15 129 -62 14 -30 16 -83 16 -410 l0 -376 120 0 120 0 0 355 c0
308 2 360 16 388 37 73 88 107 159 107 63 0 99 -21 119 -70 14 -35 16 -92 16
-410 l0 -370 120 0 121 0 -3 433 -3 432 -30 54 c-36 65 -88 106 -164 127 -62
19 -144 14 -204 -11 -45 -19 -113 -78 -133 -117 -18 -36 -29 -35 -44 1 -17 42
-69 91 -117 113 -56 25 -157 32 -208 15z"/>
<path d="M9014 5536 c-34 -8 -80 -24 -102 -35 -84 -43 -156 -145 -171 -242
l-8 -49 114 0 c100 0 114 2 119 18 13 43 38 80 64 95 36 22 121 22 161 1 41
-21 69 -84 69 -155 l0 -57 -147 -4 c-122 -4 -158 -9 -204 -27 -72 -28 -142
-89 -177 -155 -23 -44 -27 -63 -27 -141 0 -82 3 -97 32 -156 55 -111 147 -164
283 -163 56 0 88 6 128 23 48 22 112 79 112 101 0 6 5 10 10 10 6 0 10 -16 10
-36 0 -69 9 -74 121 -74 l100 0 -3 398 c-3 390 -4 398 -27 457 -32 80 -97 145
-174 174 -75 27 -202 35 -283 17z m244 -670 c-4 -70 -9 -91 -30 -124 -45 -67
-130 -95 -204 -67 -54 20 -84 63 -84 118 0 105 77 155 244 156 l79 1 -5 -84z"/>
</g>
</svg>
