<?xml version="1.0" encoding="UTF-8"?>
<svg version="1.1" xmlns="http://www.w3.org/2000/svg" width="2048" height="2048">
<path d="M0 0 C675.84 0 1351.68 0 2048 0 C2048 675.84 2048 1351.68 2048 2048 C1372.16 2048 696.32 2048 0 2048 C0 1372.16 0 696.32 0 0 Z " fill="#F5F6EA" transform="translate(0,0)"/>
<path d="M0 0 C6.30855963 4.59187312 13.2863157 10.64474748 15.46484375 18.390625 C16.6111271 17.39114088 17.75683228 16.39099369 18.90234375 15.390625 C19.63710937 14.75253906 20.371875 14.11445312 21.12890625 13.45703125 C22.64617508 12.1148319 24.14262296 10.74858324 25.61328125 9.35546875 C31.08839073 4.22625969 36.65801623 0.54660264 43.46484375 -2.609375 C44.33238281 -3.02445313 45.19992187 -3.43953125 46.09375 -3.8671875 C52.71437541 -6.5606425 59.028418 -6.98863899 66.08984375 -7.046875 C66.96044434 -7.05702637 67.83104492 -7.06717773 68.72802734 -7.07763672 C81.47195197 -6.90694842 92.73713551 -2.1724325 102 6.51953125 C109.99043081 15.82692688 113.73972907 27.41462228 115.46484375 39.390625 C115.63725082 40.54183838 115.8096579 41.69305176 115.98728943 42.87915039 C116.64333842 48.20078696 116.59676472 53.5005769 116.57836914 58.85546875 C116.57851517 59.97829758 116.57866119 61.1011264 116.57881165 62.25798035 C116.57811818 65.94804861 116.57035235 69.63806562 116.5625 73.328125 C116.56063381 75.89501925 116.55921085 78.46191386 116.55821228 81.02880859 C116.55479174 87.0811406 116.54692017 93.13345163 116.53686279 99.18577576 C116.52565592 106.08062803 116.52017971 112.97548122 116.51516736 119.87034035 C116.50473622 134.04377993 116.48640912 148.21719808 116.46484375 162.390625 C101.28484375 162.390625 86.10484375 162.390625 70.46484375 162.390625 C70.44502441 158.893479 70.42520508 155.39633301 70.40478516 151.79321289 C70.33781608 140.22615128 70.26027536 128.65917378 70.17731667 117.09221745 C70.12728635 110.08062463 70.08084272 103.06904294 70.04296875 96.05737305 C70.00639391 89.28810762 69.9596571 82.51897244 69.90678024 75.74981499 C69.88827752 73.16993835 69.87315443 70.59003515 69.86149979 68.01011848 C69.84456701 64.39081288 69.81551434 60.77178904 69.78369141 57.15258789 C69.78153122 56.09090897 69.77937103 55.02923004 69.77714539 53.93537903 C69.6675494 44.14915457 68.3617838 35.45246907 62.46484375 27.390625 C56.93252204 22.87444401 52.15808775 22.03347551 45.1953125 22.10546875 C38.30211308 22.82535939 32.62637446 25.87428562 27.46484375 30.390625 C26.80484375 30.390625 26.14484375 30.390625 25.46484375 30.390625 C23.57329707 33.60276216 23.20835178 35.98560366 23.18637085 39.6930542 C23.17520737 40.76715042 23.16404388 41.84124664 23.15254211 42.94789124 C23.14930183 44.70763527 23.14930183 44.70763527 23.14599609 46.50292969 C23.13595047 47.74221725 23.12590485 48.98150482 23.11555481 50.25834656 C23.08996398 53.65266606 23.07310821 57.04681845 23.06012678 60.44119549 C23.04449232 63.98999983 23.01770311 67.53871951 22.99209595 71.08746338 C22.94531372 77.80570731 22.90856695 84.52396718 22.87542307 91.24229074 C22.83719774 98.8916252 22.78778867 106.54087462 22.73743892 114.19013739 C22.6341273 129.923578 22.54634081 145.65705397 22.46484375 161.390625 C7.28484375 161.390625 -7.89515625 161.390625 -23.53515625 161.390625 C-23.54973877 158.00006836 -23.56432129 154.60951172 -23.5793457 151.11621094 C-23.62979648 139.88442062 -23.69626231 128.6527626 -23.77087116 117.42110825 C-23.81569657 110.61473903 -23.85514112 103.8084206 -23.8815918 97.00195312 C-23.90715769 90.42715566 -23.94815078 83.85255685 -23.99834251 77.2779007 C-24.01496244 74.77586964 -24.02650693 72.2737993 -24.03277016 69.77172089 C-24.04246416 66.25349879 -24.07058752 62.73585209 -24.1027832 59.21777344 C-24.10134811 58.19493256 -24.09991302 57.17209167 -24.09843445 56.11825562 C-24.22750077 46.07440803 -25.69571482 35.20712949 -32.53515625 27.390625 C-37.7943449 23.0079678 -42.49255703 22.77878836 -49.24609375 23.00390625 C-56.93209837 23.90760513 -63.09268223 26.94815098 -68.53515625 32.390625 C-71.03646847 35.95215859 -71.91189934 38.35971017 -71.93388367 42.69941711 C-71.94642181 43.74964554 -71.95895996 44.79987396 -71.97187805 45.88192749 C-71.97044296 47.02344269 -71.96900787 48.16495789 -71.9675293 49.34106445 C-71.97772095 50.55123734 -71.9879126 51.76141022 -71.99841309 53.008255 C-72.02339762 56.31789995 -72.03526296 59.62710134 -72.04126716 62.93680215 C-72.0506594 66.39887036 -72.07686343 69.86081065 -72.10127258 73.32279968 C-72.14491802 79.87456171 -72.17347692 86.42629889 -72.19659597 92.97816199 C-72.22365819 100.43891098 -72.26756902 107.89953116 -72.31288469 115.36018813 C-72.40570299 130.7036153 -72.47517243 146.047029 -72.53515625 161.390625 C-87.38515625 161.390625 -102.23515625 161.390625 -117.53515625 161.390625 C-117.55497559 157.3994458 -117.57479492 153.4082666 -117.59521484 149.29614258 C-117.66224672 136.0806691 -117.73978722 122.86527459 -117.82268333 109.64989185 C-117.87266783 101.64071854 -117.91911156 93.63155473 -117.95703125 85.62231445 C-117.99011606 78.6362193 -118.03003645 71.6502012 -118.07794631 64.66419142 C-118.10304859 60.96992129 -118.12487649 57.27570118 -118.13850021 53.5813694 C-118.15388936 49.44321365 -118.18454898 45.30529887 -118.21630859 41.16723633 C-118.21846878 39.96097595 -118.22062897 38.75471558 -118.22285461 37.51190186 C-118.32307286 27.22956375 -119.34170957 17.1207251 -122.59765625 7.328125 C-124.75690325 0.73631056 -124.75690325 0.73631056 -125.53515625 -2.609375 C-110.41208412 -5.34439868 -94.83757454 -4.73395631 -79.53515625 -4.609375 C-77.43239023 0.01435421 -75.92778497 4.338959 -74.84765625 9.328125 C-74.59628906 10.47152344 -74.34492187 11.61492188 -74.0859375 12.79296875 C-73.90417969 13.65019531 -73.72242188 14.50742187 -73.53515625 15.390625 C-72.87515625 15.390625 -72.21515625 15.390625 -71.53515625 15.390625 C-70.1786533 13.90890639 -68.87528126 12.37837163 -67.59765625 10.828125 C-50.96029815 -7.92864178 -21.55541934 -13.68387176 0 0 Z " fill="#5B8464" transform="translate(1527.53515625,968.609375)"/>
<path d="M0 0 C2.28695693 2.92966145 2.66230127 5.48948516 3.29296875 9.13671875 C3.41067627 9.79663818 3.52838379 10.45655762 3.6496582 11.13647461 C3.88793715 12.48542255 4.11917373 13.83563391 4.34326172 15.18701172 C4.64305982 16.98715278 4.96880703 18.78292079 5.296875 20.578125 C6.1806398 25.51608356 6.76398392 30.10700117 6.66796875 35.13671875 C3.7329428 36.14408503 0.79457414 37.14132379 -2.14453125 38.13671875 C-3.39459961 38.56597656 -3.39459961 38.56597656 -4.66992188 39.00390625 C-5.47236328 39.27460937 -6.27480469 39.5453125 -7.1015625 39.82421875 C-7.83995361 40.07558594 -8.57834473 40.32695313 -9.33911133 40.5859375 C-11.33203125 41.13671875 -11.33203125 41.13671875 -14.33203125 41.13671875 C-14.83992187 40.08613281 -15.3478125 39.03554688 -15.87109375 37.953125 C-22.61718298 24.12990066 -29.10774449 10.95697705 -44.33203125 5.13671875 C-45.11191406 4.83765625 -45.89179688 4.53859375 -46.6953125 4.23046875 C-53.76876817 2.01937407 -60.73420721 1.85442563 -68.08203125 1.82421875 C-69.06437744 1.81874023 -70.04672363 1.81326172 -71.05883789 1.80761719 C-82.40371535 1.91907698 -94.05203692 4.85672442 -102.33203125 13.13671875 C-106.68676914 19.31333678 -108.27340715 25.61878618 -107.33203125 33.13671875 C-104.88217837 41.75114709 -101.08157303 47.59004819 -93.58203125 52.44921875 C-81.41273434 59.2182042 -67.62117963 62.9965181 -54.4921875 67.46484375 C-1.6486799 85.48496429 -1.6486799 85.48496429 11.90625 110.4140625 C15.70589571 118.4969452 17.01771689 126.09445846 16.91796875 134.94921875 C16.90975098 135.83504639 16.9015332 136.72087402 16.89306641 137.63354492 C16.59198916 155.26598805 11.12760998 171.38712296 -1.33203125 184.13671875 C-23.16544376 204.61120517 -51.62755628 209.21657252 -80.43896484 208.29345703 C-102.21684547 207.11359211 -123.42744129 199.49374294 -141.33203125 187.13671875 C-142.37617188 186.52183594 -143.4203125 185.90695312 -144.49609375 185.2734375 C-149.34308996 181.12282153 -149.62402184 173.94163914 -150.70703125 168.01171875 C-150.96613281 166.74328125 -151.22523438 165.47484375 -151.4921875 164.16796875 C-152.93922779 156.74135985 -153.7026305 149.69968857 -153.33203125 142.13671875 C-134.35969923 134.13671875 -134.35969923 134.13671875 -130.33203125 134.13671875 C-130.06390625 135.10609375 -129.79578125 136.07546875 -129.51953125 137.07421875 C-124.69715902 153.82705974 -118.64197511 169.25430664 -103.19140625 178.56640625 C-87.63621302 187.10901237 -69.28294316 188.5965118 -52.203125 184.0546875 C-41.46523424 180.62148433 -33.94090164 176.15497219 -28.33203125 166.13671875 C-25.11808939 159.24970048 -25.33981575 152.05417861 -27.89453125 144.94921875 C-34.2684929 131.10611303 -46.93792982 126.63242474 -60.39453125 121.63671875 C-65.35476065 119.82923252 -70.33739449 118.11898117 -75.37109375 116.52734375 C-85.21344691 113.40417211 -94.6778042 109.85814939 -104.08203125 105.57421875 C-105.06969482 105.12723633 -106.0573584 104.68025391 -107.07495117 104.21972656 C-124.67446054 96.01131899 -137.90012138 84.39896764 -145.2890625 66.19140625 C-150.80113008 50.04744803 -149.98565262 32.78433374 -143.046875 17.26171875 C-135.09708652 1.31785328 -120.76533482 -9.62845088 -104.33203125 -15.86328125 C-69.06830189 -26.81010954 -29.55983153 -23.61815685 0 0 Z " fill="#5C8565" transform="translate(379.33203125,926.86328125)"/>
<path d="M0 0 C12.32482047 10.52745082 18.15227397 23.99899998 20.25 39.9296875 C20.68033657 45.68237963 20.63070615 51.45094705 20.59955978 57.21630096 C20.58560858 60.04321156 20.59238058 62.86943687 20.60440063 65.6963501 C20.63507906 73.72225848 20.63046264 81.74799537 20.61035156 89.77392578 C20.59939395 94.71155558 20.61269753 99.64866254 20.64024734 104.58621979 C20.64565564 106.4535617 20.64170723 108.32095698 20.62784958 110.18825531 C20.34398308 124.33556239 20.34398308 124.33556239 26.25 136.9296875 C28.08737827 139.20185598 28.08737827 139.20185598 30.8515625 139.125 C31.84929687 139.10179687 32.84703125 139.07859375 33.875 139.0546875 C34.87789062 139.03664063 35.88078125 139.01859375 36.9140625 139 C37.68492187 138.97679687 38.45578125 138.95359375 39.25 138.9296875 C40.8125 141.7421875 40.8125 141.7421875 42.25 144.9296875 C41.00802774 148.65560429 39.416078 149.16719764 36.03344727 150.88671875 C34.96501587 151.40298828 34.96501587 151.40298828 33.875 151.9296875 C33.144021 152.28417969 32.41304199 152.63867188 31.65991211 153.00390625 C20.02621695 158.51413228 6.93384831 161.70531281 -5.81640625 158.05078125 C-15.51022972 153.56646291 -20.56918299 146.50510711 -24.75 136.9296875 C-25.34425781 137.57035156 -25.93851563 138.21101563 -26.55078125 138.87109375 C-38.64671152 151.49375193 -52.97844846 159.34969072 -70.73828125 160.09765625 C-86.75139473 160.26861476 -98.46090053 157.73958574 -110.48828125 146.31640625 C-119.44798636 136.86151882 -123.19186322 125.24234565 -122.96484375 112.2265625 C-121.68877868 98.58426682 -115.61152131 88.20476467 -105.75 78.9296875 C-84.53906722 62.22313664 -51.98242607 55.27547861 -25.75 51.9296875 C-25.59389752 35.64610785 -25.59389752 35.64610785 -31.75 20.9296875 C-32.08 19.9396875 -32.41 18.9496875 -32.75 17.9296875 C-34.58283326 16.77854781 -34.58283326 16.77854781 -36.75 15.9296875 C-37.36617187 15.64867187 -37.98234375 15.36765625 -38.6171875 15.078125 C-46.76195395 11.94064688 -56.4129041 11.19598292 -64.625 14.4921875 C-74.66007952 19.84547342 -79.26552568 27.06780604 -83.0625 37.5546875 C-83.289375 38.3384375 -83.51625 39.1221875 -83.75 39.9296875 C-90.24220017 39.39618494 -95.69476651 37.71579957 -101.75 35.3671875 C-102.62011719 35.03783203 -103.49023438 34.70847656 -104.38671875 34.36914062 C-106.51093854 33.56380455 -108.63175164 32.75057269 -110.75 31.9296875 C-109.65469759 20.93889434 -106.14962944 12.29372124 -97.984375 4.65234375 C-89.8972808 -1.58263622 -80.53591818 -6.22923948 -70.75 -9.0703125 C-69.79996094 -9.36808594 -68.84992188 -9.66585937 -67.87109375 -9.97265625 C-45.90457303 -15.82141085 -18.55659419 -13.97016324 0 0 Z " fill="#5A8364" transform="translate(1798.75,974.0703125)"/>
<path d="M0 0 C1.06347656 -0.00773438 2.12695312 -0.01546875 3.22265625 -0.0234375 C18.97112801 0.01520906 34.20536803 4.07818218 46.5 14.25 C47.13421875 14.76046875 47.7684375 15.2709375 48.421875 15.796875 C56.58585503 23.0938837 62.71952655 35.28165038 63.67351532 46.2438488 C63.91516208 51.16746845 63.91927177 56.09338905 63.91069031 61.02199745 C63.90616558 63.85360923 63.92034374 66.68461122 63.93908691 69.51615906 C63.9756733 75.53159646 63.98953967 81.5469678 64 87.5625 C64.01213991 94.53052728 64.03396928 101.4982536 64.08000183 108.46614647 C64.09342576 111.23392947 64.08942809 114.00131734 64.08459473 116.76911926 C64.04729256 136.08406591 64.04729256 136.08406591 73.5 152.25 C76.16949409 152.49315656 76.16949409 152.49315656 79.125 152.375 C80.12789062 152.35695313 81.13078125 152.33890625 82.1640625 152.3203125 C82.93492187 152.29710937 83.70578125 152.27390625 84.5 152.25 C85.82282752 154.42877474 86.56634034 155.69001152 86.26147461 158.26342773 C84.92116251 161.7600996 81.27883192 162.80455046 78.0625 164.3125 C77.32821777 164.66248047 76.59393555 165.01246094 75.83740234 165.37304688 C73.73512249 166.35679713 71.62230261 167.31035863 69.5 168.25 C68.62472656 168.64058594 67.74945312 169.03117187 66.84765625 169.43359375 C57.74359609 172.77761585 44.7213952 173.28833534 35.8125 169.25 C28.30979996 164.66573406 24.01761261 158.12945225 20.5 150.25 C19.84 150.25 19.18 150.25 18.5 150.25 C17.47616089 151.39920716 16.50615653 152.59659048 15.5625 153.8125 C7.07338652 163.6758757 -7.56141272 170.54402331 -20.5 172.25 C-23.77207867 172.41060203 -27.03690089 172.4350897 -30.3125 172.4375 C-31.17681641 172.44974609 -32.04113281 172.46199219 -32.93164062 172.47460938 C-46.67313338 172.50572219 -58.45556979 167.17018312 -68.375 157.6640625 C-76.69191613 148.21580117 -79.04706325 135.70381029 -78.71484375 123.46484375 C-77.89294163 111.16619923 -72.09362049 100.8014018 -63.13671875 92.43359375 C-59.17101418 89.14940286 -55.0787442 86.58883384 -50.5 84.25 C-49.7059375 83.83363281 -48.911875 83.41726563 -48.09375 82.98828125 C-33.7832296 75.98761 -18.03920994 72.52755355 -2.625 68.875 C-1.86581268 68.69383636 -1.10662537 68.51267273 -0.32443237 68.32601929 C1.86286239 67.80664799 4.05201369 67.29614084 6.2421875 66.7890625 C7.5194873 66.49209473 8.79678711 66.19512695 10.11279297 65.88916016 C13.02469649 65.33968896 15.55258971 65.11145554 18.5 65.25 C18.41818026 61.91573244 18.30542926 58.58317031 18.1875 55.25 C18.16494141 54.31542969 18.14238281 53.38085938 18.11914062 52.41796875 C17.79718277 44.04706463 16.03310616 36.82991003 10.5 30.25 C2.22705498 25.00823524 -5.93222464 24.56167084 -15.5 25.25 C-18.92460266 26.07032329 -21.56671942 27.31945187 -24.5 29.25 C-25.20769531 29.71277344 -25.91539062 30.17554688 -26.64453125 30.65234375 C-33.95028043 36.1960384 -36.96172506 44.40896721 -38.5 53.25 C-48.11946377 50.97012709 -57.64078048 47.67960976 -66.5 43.25 C-64.72904137 32.6242482 -60.78230804 23.02610751 -52.2421875 16.125 C-36.35625395 5.26282321 -19.23790077 -0.13991201 0 0 Z " fill="#5A8465" transform="translate(500.5,961.75)"/>
<path d="M0 0 C1.52753906 0.68642578 1.52753906 0.68642578 3.0859375 1.38671875 C15.32056346 7.50403173 24.14528939 16.87986509 29.03543091 29.71841431 C32.21056369 39.52272759 32.56144166 48.61230486 32.51642036 58.84220123 C32.50361366 61.77001573 32.51523787 64.69691166 32.53245544 67.62469482 C32.55896265 72.78285311 32.5647582 77.94078 32.56335449 83.09899902 C32.5611126 91.36612665 32.57545674 99.63296954 32.61894035 107.89998627 C32.62870236 110.76821779 32.62010526 113.63599007 32.61024475 116.50421143 C32.62253135 126.51422405 33.12335284 134.87149084 37.4375 144.0625 C41.16489563 146.88077475 44.73914736 146.60805804 49.3203125 146.6640625 C50.20460938 146.77492188 51.08890625 146.88578125 52 147 C54 150 54 150 53.8984375 152.49609375 C52.18610579 157.26828778 47.33953067 158.87403881 43 161 C31.80072957 165.71234282 18.81602394 168.62628154 6.83984375 165.05859375 C-0.96956291 161.30112659 -6.04772303 155.62774077 -10 148 C-10.8125 145 -10.8125 145 -11 143 C-11.680625 143.680625 -12.36125 144.36125 -13.0625 145.0625 C-13.52527344 145.51882813 -13.98804688 145.97515625 -14.46484375 146.4453125 C-15.50429012 147.49798338 -16.51708882 148.57752777 -17.50390625 149.6796875 C-27.2722015 160.27181488 -43.25416791 166.62510155 -57.578125 167.3359375 C-72.95686246 167.63355901 -85.9073974 164.86925683 -97.8046875 154.4140625 C-106.99254547 144.65493875 -110.56712308 131.50696848 -110.17578125 118.38671875 C-109.32095239 106.78004249 -103.97547584 95.7390001 -95.35546875 87.8359375 C-84.26935926 79.19502297 -71.7099684 73.44790134 -58.25 69.625 C-57.25226562 69.33681396 -56.25453125 69.04862793 -55.2265625 68.75170898 C-41.62908766 64.9232837 -27.80386998 61.97652783 -14 59 C-12.76702644 42.06392051 -12.76702644 42.06392051 -19.54296875 27.18359375 C-26.29402735 20.77240538 -33.55943704 19.41549955 -42.67578125 19.6484375 C-49.2470165 20.34339775 -54.83447785 22.20307736 -59.9375 26.4375 C-60.9584375 27.7059375 -60.9584375 27.7059375 -62 29 C-62.63550781 29.73734375 -63.27101563 30.4746875 -63.92578125 31.234375 C-66.22081531 34.29442042 -67.69807313 37.32066454 -69.25 40.8125 C-69.77078125 41.97394531 -70.2915625 43.13539063 -70.828125 44.33203125 C-71.21484375 45.21246094 -71.6015625 46.09289062 -72 47 C-77.76065111 46.32058766 -82.95115325 44.39116805 -88.375 42.4375 C-89.30183594 42.10814453 -90.22867188 41.77878906 -91.18359375 41.43945312 C-93.45735647 40.6307437 -95.7293813 39.81748642 -98 39 C-97.03631385 28.20438594 -93.78003884 19.85181041 -86 12 C-82.4947989 9.34755678 -78.8368053 7.13716786 -75 5 C-74.36578125 4.62230469 -73.7315625 4.24460937 -73.078125 3.85546875 C-68.60095806 1.36925436 -63.79868281 -0.14038247 -58.9375 -1.6875 C-58.26436768 -1.90229004 -57.59123535 -2.11708008 -56.89770508 -2.33837891 C-39.26077606 -7.73757093 -16.90688926 -7.64643321 0 0 Z " fill="#5B8365" transform="translate(824,967)"/>
<path d="M0 0 C10.68485731 8.87467909 17.18883323 21.41166728 18.57970047 35.27389145 C18.88233994 40.34032468 18.89479745 45.4062647 18.87188911 50.48030663 C18.85907233 53.33699266 18.87071585 56.1927386 18.88792419 59.0493927 C18.91442612 64.08386973 18.92022727 69.1181097 18.91882324 74.15264893 C18.9165812 82.21807964 18.93097901 90.28321827 18.9744091 98.34853554 C18.98415579 101.14415456 18.97558163 103.93930065 18.9657135 106.73490906 C18.77405076 123.49724719 18.77405076 123.49724719 26.46875 137.87890625 C29.60911236 139.80993652 32.61878415 139.40268073 36.18359375 138.9921875 C36.9003125 139.00765625 37.61703125 139.023125 38.35546875 139.0390625 C40.35546875 142.0390625 40.35546875 142.0390625 40.44921875 144.46875 C38.78004522 148.39130781 35.54734981 149.48503333 31.85546875 151.1640625 C31.12005859 151.50953125 30.38464844 151.855 29.62695312 152.2109375 C27.54547277 153.17530152 25.45264936 154.10948398 23.35546875 155.0390625 C22.53046875 155.42835938 21.70546875 155.81765625 20.85546875 156.21875 C12.55406636 159.62362207 -0.24710555 159.67795233 -8.5546875 156.265625 C-16.92570612 151.35254117 -22.03165652 145.3791147 -24.64453125 136.0390625 C-25.26328125 136.6990625 -25.88203125 137.3590625 -26.51953125 138.0390625 C-40.50264636 151.78912569 -57.01829656 159.16816736 -76.76953125 159.4140625 C-89.65162094 159.26785001 -101.85457011 155.71766672 -111.45703125 146.7890625 C-121.5133929 135.8162938 -124.45266118 123.87952181 -123.9921875 109.38671875 C-123.65340499 103.75370066 -122.213089 99.05615193 -119.64453125 94.0390625 C-119.22042969 93.17925781 -118.79632812 92.31945313 -118.359375 91.43359375 C-109.67558134 75.44477032 -91.86464237 67.56216362 -75.14453125 62.4140625 C-59.53802043 57.81849925 -43.53003582 54.51576144 -27.64453125 51.0390625 C-26.41975076 33.54886462 -26.41975076 33.54886462 -34.03125 18.44921875 C-40.54111164 12.29606186 -48.18210427 11.4950162 -56.71044922 11.55371094 C-65.26022053 11.89386098 -70.01305024 15.1249066 -75.89453125 21.0390625 C-80.39911188 26.36347681 -82.53200442 32.46788531 -84.64453125 39.0390625 C-90.55251901 38.46885457 -95.53307971 36.75320583 -101.01953125 34.5390625 C-101.83808594 34.21808594 -102.65664062 33.89710938 -103.5 33.56640625 C-109.49220896 31.19138479 -109.49220896 31.19138479 -110.64453125 30.0390625 C-111.53455089 21.49487391 -107.61474279 14.49754719 -102.3828125 7.94140625 C-77.84307738 -18.91443871 -28.35891533 -21.02832422 0 0 Z " fill="#5A8364" transform="translate(1342.64453125,974.9609375)"/>
<path d="M0 0 C0.9266748 -0.01401855 1.85334961 -0.02803711 2.80810547 -0.04248047 C8.99436835 0.00059474 14.08905518 1.04936367 19.8125 3.375 C20.50569336 3.65432373 21.19888672 3.93364746 21.91308594 4.22143555 C33.46011769 9.11557221 41.1704347 19.33542766 46.20036316 30.43859863 C50.96629731 43.46510302 50.46657652 56.51697587 50.31946969 70.23843956 C50.28781122 73.69898818 50.28524485 77.15956816 50.27934265 80.62023926 C50.26391836 87.14707423 50.22304827 93.67348102 50.1725952 100.20012903 C50.11634179 107.64165188 50.08912563 115.08319723 50.06411803 122.52488041 C50.01211905 137.80854243 49.92057441 153.09161598 49.8125 168.375 C34.9625 168.375 20.1125 168.375 4.8125 168.375 C4.79791748 165.12132568 4.78333496 161.86765137 4.76831055 158.51538086 C4.71778567 147.71866879 4.65115966 136.92209825 4.57678509 126.12552547 C4.53221621 119.58491709 4.49293073 113.04436907 4.46606445 106.50366211 C4.43989658 100.18170792 4.39939996 93.85998772 4.34931374 87.5381794 C4.33273578 85.13631685 4.32116542 82.73441392 4.31488609 80.33250237 C5.15515356 56.47819951 5.15515356 56.47819951 -4.1875 35.375 C-10.0064755 29.84697328 -15.71476374 28.752292 -23.55859375 28.859375 C-32.43006714 30.11990728 -40.13943546 34.8558 -46.1875 41.375 C-46.5175 41.705 -46.8475 42.035 -47.1875 42.375 C-47.29572389 44.00683307 -47.33435031 45.64332343 -47.34571838 47.27870178 C-47.3555072 48.34025986 -47.36529602 49.40181793 -47.37538147 50.49554443 C-47.38113693 51.67014221 -47.3868924 52.84473999 -47.39282227 54.05493164 C-47.40272186 55.28402756 -47.41262146 56.51312347 -47.42282104 57.77946472 C-47.44907201 61.1594579 -47.47090783 64.53942665 -47.49082303 67.91945958 C-47.51264459 71.44823999 -47.54005195 74.97697678 -47.56687927 78.50572205 C-47.61685811 85.19219954 -47.66177761 91.87870118 -47.70490164 98.56522602 C-47.75422974 106.175774 -47.80916424 113.78627824 -47.86458123 121.39678395 C-47.97848094 137.05615048 -48.08456227 152.71555699 -48.1875 168.375 C-63.3675 168.375 -78.5475 168.375 -94.1875 168.375 C-94.20208252 164.44029785 -94.21666504 160.5055957 -94.23168945 156.45166016 C-94.28221175 143.39585388 -94.3486909 130.34016873 -94.42321491 117.28447914 C-94.46797842 109.37521329 -94.50743654 101.46599051 -94.53393555 93.55664062 C-94.55707458 86.6543361 -94.59064608 79.75217018 -94.63620156 72.84997594 C-94.65992201 69.2030301 -94.67878808 65.55621969 -94.68511391 61.90919876 C-94.53888422 34.58161976 -94.53888422 34.58161976 -101.41796875 8.34375 C-102.1875 6.375 -102.1875 6.375 -102.1875 4.375 C-96.96173165 3.360536 -91.80444562 3.05004161 -86.5 2.8125 C-85.58968018 2.7700415 -84.67936035 2.72758301 -83.74145508 2.68383789 C-74.55525662 2.28961109 -65.38000208 2.28044855 -56.1875 2.375 C-54.08473398 6.99872921 -52.58012872 11.323334 -51.5 16.3125 C-51.24863281 17.45589844 -50.99726562 18.59929688 -50.73828125 19.77734375 C-50.55652344 20.63457031 -50.37476563 21.49179687 -50.1875 22.375 C-49.1975 21.529375 -48.2075 20.68375 -47.1875 19.8125 C-46.54167969 19.26464844 -45.89585938 18.71679688 -45.23046875 18.15234375 C-43.91480545 17.00774184 -42.62306471 15.83473753 -41.36328125 14.62890625 C-29.63931833 3.59314241 -15.67138179 0.16392114 0 0 Z " fill="#598465" transform="translate(1136.1875,961.625)"/>
<path d="M0 0 C-0.64818933 5.9433975 -2.79914211 11.21676242 -4.9375 16.75 C-5.29779297 17.70777344 -5.65808594 18.66554688 -6.02929688 19.65234375 C-8.74550893 26.74550893 -8.74550893 26.74550893 -11 29 C-11.61746094 28.40832031 -12.23492188 27.81664062 -12.87109375 27.20703125 C-23.23904798 17.51498168 -23.23904798 17.51498168 -36.6875 14.5 C-43.35324631 14.79487586 -47.01426526 15.9219055 -51.6875 20.8125 C-56.40748055 27.31841914 -58.01952509 32.80731315 -58.31640625 40.73828125 C-58.35451416 41.70032471 -58.39262207 42.66236816 -58.43188477 43.65356445 C-58.49653931 45.46473755 -58.49653931 45.46473755 -58.5625 47.3125 C-58.706875 51.169375 -58.85125 55.02625 -59 59 C-47.78 59 -36.56 59 -25 59 C-25 66.59 -25 74.18 -25 82 C-36.22 82 -47.44 82 -59 82 C-59 128.2 -59 174.4 -59 222 C-74.18 222 -89.36 222 -105 222 C-105 175.8 -105 129.6 -105 82 C-112.92 82 -120.84 82 -129 82 C-129 74.41 -129 66.82 -129 59 C-121.08 59 -113.16 59 -105 59 C-105.0825 56.855 -105.165 54.71 -105.25 52.5 C-105.49347669 34.04692238 -98.12689279 18.65923673 -85.6875 5.3125 C-62.11339412 -17.27065895 -26.42150087 -14.49314994 0 0 Z " fill="#5B8466" transform="translate(722,908)"/>
<path d="M0 0 C2.125 1.58203125 2.125 1.58203125 2.85449219 3.77368164 C3.18897302 7.2461844 2.53076149 9.74288523 1.578125 13.09765625 C1.2275 14.34933594 0.876875 15.60101562 0.515625 16.890625 C0.13548834 18.20444782 -0.24472045 19.51824978 -0.625 20.83203125 C-0.99055216 22.12993586 -1.3551444 23.42811122 -1.71875 24.7265625 C-3.60945746 31.40569213 -5.61123895 38.01998974 -7.875 44.58203125 C-8.46925781 44.1953125 -9.06351563 43.80859375 -9.67578125 43.41015625 C-21.10557884 36.22875932 -31.3779418 33.00714421 -44.875 34.58203125 C-51.73151108 36.57633177 -57.2116352 40.38310531 -60.875 46.58203125 C-61.73833266 50.49218701 -61.6928081 54.30842956 -61.64794922 58.30053711 C-61.65857895 59.46223419 -61.66920868 60.62393127 -61.68016052 61.8208313 C-61.70818303 65.64662152 -61.69415804 69.47102933 -61.6796875 73.296875 C-61.69093885 75.95493115 -61.70452719 78.61287252 -61.72122192 81.27088928 C-61.75550317 87.54292062 -61.75950854 93.81458705 -61.75249684 100.08669335 C-61.74599497 107.23072364 -61.77345725 114.37449897 -61.80369925 121.51845348 C-61.86511942 136.20635571 -61.87964297 150.89398787 -61.875 165.58203125 C-77.055 165.58203125 -92.235 165.58203125 -107.875 165.58203125 C-107.89687378 159.42135986 -107.89687378 159.42135986 -107.91918945 153.13623047 C-107.96963109 139.53357845 -108.03609521 125.93104374 -108.11071491 112.32850456 C-108.15554819 104.08506428 -108.19499107 95.84166601 -108.22143555 87.59814453 C-108.24451718 80.40728866 -108.27802716 73.21656711 -108.32370156 66.02581799 C-108.34749777 62.22362202 -108.36631508 58.42155795 -108.37261391 54.6192894 C-108.37872711 51.02901812 -108.39894674 47.43908373 -108.42927551 43.84893799 C-108.44204782 41.92652324 -108.44050299 40.00402938 -108.4382782 38.08157349 C-108.55962715 26.65722747 -110.47278058 15.95259503 -115.10546875 5.47265625 C-115.875 3.58203125 -115.875 3.58203125 -115.875 1.58203125 C-100.52553579 0.34856287 -85.27980235 -0.78474976 -69.875 -0.41796875 C-67.24786864 5.12987025 -65.8622297 10.50875475 -64.6875 16.51953125 C-64.51025391 17.39416016 -64.33300781 18.26878906 -64.15039062 19.16992188 C-63.7185182 21.30593955 -63.29580945 23.44380658 -62.875 25.58203125 C-62.41351562 24.90398438 -61.95203125 24.2259375 -61.4765625 23.52734375 C-52.64443716 10.92498308 -43.66502171 1.99328363 -28.9609375 -3.078125 C-18.9151788 -4.71479355 -9.35822172 -4.00521718 0 0 Z " fill="#5A8466" transform="translate(1012.875,964.41796875)"/>
<path d="M0 0 C0.10164192 6.2986875 0.17156661 12.59716253 0.21972656 18.89648438 C0.23980888 21.03816634 0.26708037 23.1797937 0.30175781 25.32128906 C0.35042398 28.40443415 0.3730029 31.48685262 0.390625 34.5703125 C0.41127014 35.52366486 0.43191528 36.47701721 0.45318604 37.45925903 C0.45552255 44.42324333 -0.90075376 47.6066647 -5.60546875 52.7578125 C-13.04908819 59.19057004 -21.32353858 62.40305358 -31.1484375 62.2734375 C-37.13522048 61.69936242 -41.25742234 59.09330622 -45.3125 54.75 C-50.28824572 48.33711791 -51.65059218 42.10709135 -51.40625 34.0234375 C-50.36816876 26.2977175 -46.1076972 20.10541725 -40.4765625 14.875 C-31.25338083 7.89214952 -19.96393871 4.25954935 -9 1 C-8.30132813 0.79117187 -7.60265625 0.58234375 -6.8828125 0.3671875 C-4.56545594 -0.08474511 -2.3561655 -0.02269723 0 0 Z " fill="#F3F5EB" transform="translate(1316,1045)"/>
<path d="M0 0 C0.20387742 6.52818045 0.34336471 13.05553233 0.43945312 19.58618164 C0.47953223 21.80459264 0.53401322 24.02279433 0.60351562 26.24047852 C1.23967752 47.07010295 1.23967752 47.07010295 -3.81640625 52.85546875 C-5.93188477 54.64526367 -5.93188477 54.64526367 -8 56 C-8.57999756 56.42321533 -9.15999512 56.84643066 -9.75756836 57.2824707 C-16.94088577 61.95408027 -25.50811335 64.21899663 -34 63 C-41.15718557 60.78527649 -44.93056605 56.3539102 -48.8125 50.0625 C-51.39659971 43.34085335 -51.15019207 34.85953337 -49.12109375 28.05078125 C-43.52271915 15.98563731 -33.36219183 10.49634744 -21.35498047 6.01220703 C-4.49459746 0 -4.49459746 0 0 0 Z " fill="#F3F6EA" transform="translate(1773,1044)"/>
<path d="M0 0 C0.152775 6.40430962 0.25747499 12.80814543 0.32958984 19.21386719 C0.35966783 21.39047811 0.40054171 23.56696878 0.45263672 25.74316406 C0.5258471 28.88116189 0.55954688 32.0175507 0.5859375 35.15625 C0.61690521 36.12115356 0.64787292 37.08605713 0.67977905 38.0802002 C0.68323179 45.09217357 -1.18121298 48.94232526 -6 54 C-12.16542707 60.07002395 -19.45543393 63.05866067 -28.0625 63.375 C-33.64137476 63.15876454 -38.43826689 62.2480515 -42.72265625 58.48828125 C-49.46431517 51.11717997 -50.63403681 44.59094727 -50.41015625 34.73046875 C-49.56867561 27.07700197 -45.90240337 20.80853142 -40.23046875 15.64453125 C-30.12699963 8.19521339 -12.65118524 0 0 0 Z " fill="#F2F4E9" transform="translate(811,1044)"/>
<path d="M0 0 C0.152775 6.40430962 0.25747499 12.80814543 0.32958984 19.21386719 C0.35966783 21.39047811 0.40054171 23.56696878 0.45263672 25.74316406 C0.5258471 28.88116189 0.55954688 32.0175507 0.5859375 35.15625 C0.61690521 36.12115356 0.64787292 37.08605713 0.67977905 38.0802002 C0.68322986 45.08826137 -1.17642692 48.94894734 -6 54 C-12.55847357 60.34650769 -19.45777862 63.1036858 -28.5 63.5 C-34.58836547 63.33107425 -38.56093499 62.21711176 -43 58 C-49.94265446 50.17428862 -50.78210922 43.13221572 -50.21777344 32.96484375 C-49.5173021 26.64489612 -46.1053851 21.75370208 -41.6875 17.375 C-31.47792633 9.26459101 -13.25489016 0 0 0 Z " fill="#F3F5EA" transform="translate(519,1044)"/>
<path d="M0 0 C0.66 0 1.32 0 2 0 C2.02901394 3.4374823 2.04680335 6.87493312 2.0625 10.3125 C2.07087891 11.28896484 2.07925781 12.26542969 2.08789062 13.27148438 C2.09111328 14.20927734 2.09433594 15.14707031 2.09765625 16.11328125 C2.10289307 16.97735596 2.10812988 17.84143066 2.11352539 18.73168945 C2 21 2 21 1 24 C0.90066922 25.3831579 0.85396062 26.77048374 0.84178162 28.15715027 C0.8319928 29.00268967 0.82220398 29.84822906 0.81211853 30.71939087 C0.80636307 31.64367889 0.8006076 32.56796692 0.79467773 33.52026367 C0.78477814 34.49605881 0.77487854 35.47185394 0.76467896 36.47721863 C0.73305329 39.70744386 0.70830223 42.93768381 0.68359375 46.16796875 C0.66302515 48.40570969 0.6420287 50.64344674 0.62062073 52.88117981 C0.56539037 58.77481943 0.5159853 64.66849417 0.46777344 70.56219482 C0.41756549 76.57469819 0.36187573 82.58715047 0.30664062 88.59960938 C0.19904724 100.39969596 0.09760485 112.19982687 0 124 C-0.33 124 -0.66 124 -1 124 C-1.02330414 110.63784755 -1.04100634 97.27570004 -1.05181217 83.9135313 C-1.05700181 77.70707665 -1.06402714 71.50063603 -1.07543945 65.29418945 C-1.08640903 59.29005104 -1.09230624 53.28592601 -1.09487724 47.28177834 C-1.0967064 45.00599774 -1.10027742 42.73021777 -1.10573006 40.45444298 C-1.13680016 26.93282454 -0.88489831 13.49446409 0 0 Z " fill="#6E856F" transform="translate(1043,1006)"/>
<path d="M0 0 C0.33 0 0.66 0 1 0 C1 37.29 1 74.58 1 113 C0.34 112.67 -0.32 112.34 -1 112 C-0.67 79.99 -0.34 47.98 0 15 C-0.66 15 -1.32 15 -2 15 C-1.67 14.01 -1.34 13.02 -1 12 C-0.77674186 9.94106379 -0.59294241 7.87766347 -0.4375 5.8125 C-0.35371094 4.72582031 -0.26992187 3.63914062 -0.18359375 2.51953125 C-0.12300781 1.68808594 -0.06242187 0.85664062 0 0 Z " fill="#51715A" transform="translate(1185,1017)"/>
<path d="M0 0 C0.33 0 0.66 0 1 0 C1.19993258 10.52628485 1.38368437 21.05271445 1.54658794 31.57964134 C1.62273748 36.46733899 1.70452975 41.35480828 1.79907227 46.2421875 C1.89004844 50.9558125 1.96639234 55.66946517 2.03244972 60.38350296 C2.06029352 62.18498243 2.09347452 63.98638732 2.13199425 65.78767014 C2.18491268 68.30426113 2.21911238 70.82044525 2.2487793 73.33740234 C2.26891586 74.08762161 2.28905243 74.83784088 2.30979919 75.61079407 C2.32279968 77.68441772 2.32279968 77.68441772 2 81 C0.515 81.99 0.515 81.99 -1 83 C-2.83807713 79.21572356 -3.2031953 77.04711146 -2 73 C-1.505 72.01 -1.505 72.01 -1 71 C-0.91319037 68.7891432 -0.89297007 66.57557769 -0.90234375 64.36303711 C-0.90380402 63.68160141 -0.90526428 63.00016571 -0.9067688 62.29808044 C-0.91057719 60.81717646 -0.91669629 59.33627706 -0.92483521 57.85539055 C-0.93756605 55.51520249 -0.94410575 53.17507088 -0.94897461 50.83485413 C-0.96041846 45.86904412 -0.97966756 40.90328053 -1 35.9375 C-1.02354951 30.18158366 -1.04395373 24.42569372 -1.05593872 18.66974068 C-1.06244889 16.35799269 -1.07495613 14.04632504 -1.08764648 11.73460388 C-1.09127709 10.32559277 -1.09462906 8.9165809 -1.09765625 7.50756836 C-1.10289307 6.2722789 -1.10812988 5.03698944 -1.11352539 3.76426697 C-1 1 -1 1 0 0 Z " fill="#58775F" transform="translate(563,1016)"/>
<path d="M0 0 C0.33 0 0.66 0 1 0 C1 11.22 1 22.44 1 34 C0.67 34 0.34 34 0 34 C0 29.71 0 25.42 0 21 C-0.66 21 -1.32 21 -2 21 C-2.33 21.99 -2.66 22.98 -3 24 C-3.08728882 20.75017 -3.14048658 17.5006425 -3.1875 14.25 C-3.21263672 13.32960938 -3.23777344 12.40921875 -3.26367188 11.4609375 C-3.27333984 10.57148437 -3.28300781 9.68203125 -3.29296875 8.765625 C-3.3086792 7.94868164 -3.32438965 7.13173828 -3.34057617 6.29003906 C-2.92127785 3.47067111 -1.89642359 2.09041348 0 0 Z " fill="#61866B" transform="translate(1087,1054)"/>
<path d="M0 0 C4.73093665 0.5043491 8.92475836 1.92514694 13.375 3.5625 C14.01566406 3.79646484 14.65632813 4.03042969 15.31640625 4.27148438 C16.8793161 4.84299619 18.43990727 5.42084229 20 6 C19.01 6.99 18.02 7.98 17 9 C16.01 8.01 15.02 7.02 14 6 C14 6.66 14 7.32 14 8 C13.38125 7.79375 12.7625 7.5875 12.125 7.375 C11.42375 7.25125 10.7225 7.1275 10 7 C9.34 7.66 8.68 8.32 8 9 C4.875 8.625 4.875 8.625 2 8 C2.66 6.68 3.32 5.36 4 4 C2.68 4.33 1.36 4.66 0 5 C-0.5625 3.0625 -0.5625 3.0625 -1 1 C-0.67 0.67 -0.34 0.34 0 0 Z " fill="#EEF5E4" transform="translate(440,1008)"/>
<path d="M0 0 C1.20898633 4.38257546 1.2184264 6.97910216 -1 11 C-1.61875 10.814375 -2.2375 10.62875 -2.875 10.4375 C-5.04160178 9.76313824 -5.04160178 9.76313824 -7 11 C-7.33 9.35 -7.66 7.7 -8 6 C-8.33 6.99 -8.66 7.98 -9 9 C-9.99 9.66 -10.98 10.32 -12 11 C-12.99 10.67 -13.98 10.34 -15 10 C-13.2527456 8.70462174 -11.50208483 7.41383727 -9.75 6.125 C-8.77546875 5.40570312 -7.8009375 4.68640625 -6.796875 3.9453125 C-4.56097846 2.39017775 -2.47127507 1.11795777 0 0 Z " fill="#61876D" transform="translate(1247,1046)"/>
<path d="M0 0 C0.66 0.33 1.32 0.66 2 1 C5.08184754 1.23639171 8.16239474 1.38241707 11.25 1.5234375 C12.1575 1.68070313 13.065 1.83796875 14 2 C16 5 16 5 16.0625 7.4375 C14.43404032 11.36496157 11.7577897 12.15526687 8 14 C9.875 6.25 9.875 6.25 11 4 C4.91591528 3.80185739 4.91591528 3.80185739 -1 5 C-0.67 3.35 -0.34 1.7 0 0 Z " fill="#617D67" transform="translate(862,1112)"/>
<path d="M0 0 C3.46679688 0.04882812 3.46679688 0.04882812 6.93359375 0.09765625 C5.61359375 3.72765625 4.29359375 7.35765625 2.93359375 11.09765625 C2.27359375 11.09765625 1.61359375 11.09765625 0.93359375 11.09765625 C0.93359375 10.43765625 0.93359375 9.77765625 0.93359375 9.09765625 C-0.05640625 8.43765625 -1.04640625 7.77765625 -2.06640625 7.09765625 C-2.72640625 6.43765625 -3.38640625 5.77765625 -4.06640625 5.09765625 C-3.31779097 0.15679541 -3.31779097 0.15679541 0 0 Z " fill="#567B5E" transform="translate(867.06640625,1114.90234375)"/>
<path d="M0 0 C0.33 0.66 0.66 1.32 1 2 C2.32 1.67 3.64 1.34 5 1 C5 1.66 5 2.32 5 3 C5.66 3 6.32 3 7 3 C6.9375 5.1875 6.9375 5.1875 6 8 C4.32115212 9.48481018 2.57721555 10.67806853 0.69140625 11.88671875 C-1.15512681 13.02053757 -1.15512681 13.02053757 -3 15 C-2.44854729 9.76119922 -1.57077907 5.02649303 0 0 Z " fill="#678C71" transform="translate(234,949)"/>
<path d="M0 0 C6.81457431 2.89325676 10.84816389 10.57025434 14 17 C13.67 17.99 13.34 18.98 13 20 C12.34 19.34 11.68 18.68 11 18 C11 16.68 11 15.36 11 14 C10.13375 13.62875 10.13375 13.62875 9.25 13.25 C5.51402637 11.17445909 3.35608685 9.06826056 2 5 C-0.00016466 3.79117904 -0.00016466 3.79117904 -2 3 C-1.34 2.01 -0.68 1.02 0 0 Z " fill="#E9F4E4" transform="translate(347,940)"/>
<path d="M0 0 C0.66 0 1.32 0 2 0 C2.02901394 3.4374823 2.04680335 6.87493312 2.0625 10.3125 C2.07087891 11.28896484 2.07925781 12.26542969 2.08789062 13.27148438 C2.09111328 14.20927734 2.09433594 15.14707031 2.09765625 16.11328125 C2.10289307 16.97735596 2.10812988 17.84143066 2.11352539 18.73168945 C2 21 2 21 1 24 C0.84730819 26.43780377 0.74317303 28.85283901 0.68359375 31.29296875 C0.66281265 31.99899734 0.64203156 32.70502594 0.62062073 33.43244934 C0.55532509 35.68403551 0.49633353 37.93573662 0.4375 40.1875 C0.39429575 41.7155066 0.35068084 43.24350164 0.30664062 44.77148438 C0.19966426 48.51420562 0.09834078 52.2570423 0 56 C-0.33 56 -0.66 56 -1 56 C-1.20638953 15.74769186 -1.20638953 15.74769186 0 0 Z " fill="#64816A" transform="translate(1043,1006)"/>
<path d="M0 0 C-0.99 0.495 -0.99 0.495 -2 1 C-1.814375 1.598125 -1.62875 2.19625 -1.4375 2.8125 C-1 5 -1 5 -2 8 C-2.7425 7.814375 -3.485 7.62875 -4.25 7.4375 C-7.00646092 6.99897213 -8.37203973 7.2992106 -11 8 C-11.99 7.67 -12.98 7.34 -14 7 C-5.79310345 -1.93103448 -5.79310345 -1.93103448 0 0 Z " fill="#EBF3E5" transform="translate(785,1054)"/>
<path d="M0 0 C-3.3183077 1.98960773 -5.79959699 2.2361745 -9.640625 2.1953125 C-10.71054687 2.18886719 -11.78046875 2.18242188 -12.8828125 2.17578125 C-13.99398438 2.15902344 -15.10515625 2.14226562 -16.25 2.125 C-17.37664062 2.11597656 -18.50328125 2.10695313 -19.6640625 2.09765625 C-22.44292365 2.07410658 -25.2213539 2.0412168 -28 2 C-28.33 1.34 -28.66 0.68 -29 0 C-19.28124566 -1.69021815 -9.77492546 -0.94054266 0 0 Z " fill="#69856C" transform="translate(324,1133)"/>
<path d="M0 0 C1.5625 1.625 1.5625 1.625 3 4 C2.71887936 6.00800456 2.38932033 8.01014051 2 10 C2.66 10.66 3.32 11.32 4 12 C3.01 12.66 2.02 13.32 1 14 C1 13.34 1 12.68 1 12 C-0.65 11.67 -2.3 11.34 -4 11 C-4.49230769 4.6 -4.49230769 4.6 -2 1.5625 C-1.34 1.046875 -0.68 0.53125 0 0 Z " fill="#F7F9F2" transform="translate(766,1068)"/>
<path d="M0 0 C-0.90701684 3.13333089 -1.41592104 4.64306286 -4.25 6.375 C-7.47931238 7.10893463 -9.79706519 6.74486856 -13 6 C-13 6.99 -13 7.98 -13 9 C-18.625 11 -18.625 11 -22 11 C-18.23913834 7.76823294 -14.30562841 5.42333983 -9.875 3.25 C-9.25496094 2.93417969 -8.63492187 2.61835937 -7.99609375 2.29296875 C-5.1348641 0.8715837 -3.23773387 0 0 0 Z " fill="#66876E" transform="translate(278,911)"/>
<path d="M0 0 C2.93200474 2.85276137 5.64315404 5.65079784 8 9 C7.34 9.66 6.68 10.32 6 11 C5.67 10.67 5.34 10.34 5 10 C4.01 10.495 4.01 10.495 3 11 C3 11.66 3 12.32 3 13 C1.68 12.67 0.36 12.34 -1 12 C-1.02712066 10.56260487 -1.04645067 9.12506137 -1.0625 7.6875 C-1.07410156 6.88699219 -1.08570313 6.08648438 -1.09765625 5.26171875 C-1 3 -1 3 0 0 Z " fill="#EAF1E2" transform="translate(1227,1116)"/>
<path d="M0 0 C1.65 1.32 3.3 2.64 5 4 C5.66 3.67 6.32 3.34 7 3 C9.3828125 3.33984375 9.3828125 3.33984375 12.125 3.9375 C13.49011719 4.22947266 13.49011719 4.22947266 14.8828125 4.52734375 C15.58148437 4.68332031 16.28015625 4.83929687 17 5 C17.99030231 9.12048864 17.87125129 11.14742381 16 15 C15.01 14.67 14.02 14.34 13 14 C13.66 13.67 14.32 13.34 15 13 C14.67 10.69 14.34 8.38 14 6 C13.25234375 6.13019531 12.5046875 6.26039062 11.734375 6.39453125 C8.76246333 6.81075448 6.00076556 7.12089415 3 7 C0.3125 4.5625 0.3125 4.5625 -1 2 C-0.67 1.34 -0.34 0.68 0 0 Z " fill="#E6F4E4" transform="translate(571,1108)"/>
<path d="M0 0 C0.33 0.99 0.66 1.98 1 3 C-0.0725 3.45375 -1.145 3.9075 -2.25 4.375 C-7.45776352 6.21229566 -7.45776352 6.21229566 -11 10 C-13.4375 10.75 -13.4375 10.75 -16 11 C-16.66 10.34 -17.32 9.68 -18 9 C-3.26213592 0 -3.26213592 0 0 0 Z " fill="#67836C" transform="translate(1714,1042)"/>
<path d="M0 0 C0.33 0.99 0.66 1.98 1 3 C1.99 3.33 2.98 3.66 4 4 C3.2884375 4.86625 3.2884375 4.86625 2.5625 5.75 C1.0515133 7.92582084 0.45963849 9.42602448 0 12 C-2.31 12 -4.62 12 -7 12 C-2.96127563 3.55353075 -2.96127563 3.55353075 0 0 Z " fill="#64876E" transform="translate(244,932)"/>
<path d="M0 0 C0.99 0 1.98 0 3 0 C3.33 1.65 3.66 3.3 4 5 C5.32 5.33 6.64 5.66 8 6 C7.5139707 10.37426366 6.1638148 12.03866935 3 15 C2.49363393 13.25183142 1.99515381 11.50137737 1.5 9.75 C1.2215625 8.77546875 0.943125 7.8009375 0.65625 6.796875 C0 4 0 4 0 0 Z " fill="#EAF6E7" transform="translate(1451,972)"/>
<path d="M0 0 C1.98567708 0.26041667 3.97135417 0.52083333 5.95703125 0.78125 C8.15471706 1.053233 8.15471706 1.053233 11 1 C7.79677758 3.71340928 4.73725031 4.93064936 0.75 6.1875 C-0.32765625 6.53167969 -1.4053125 6.87585937 -2.515625 7.23046875 C-3.74539063 7.61138672 -3.74539063 7.61138672 -5 8 C-5.33 7.34 -5.66 6.68 -6 6 C-5.34 6 -4.68 6 -4 6 C-3.67 4.68 -3.34 3.36 -3 2 C-2.01 2 -1.02 2 0 2 C0 1.34 0 0.68 0 0 Z " fill="#65866D" transform="translate(349,1122)"/>
<path d="M0 0 C6.75 -0.125 6.75 -0.125 9 1 C8.34 3.31 7.68 5.62 7 8 C2.68607774 7.5206753 0.83430453 6.2542015 -2 3 C-1.34 3 -0.68 3 0 3 C0 2.01 0 1.02 0 0 Z " fill="#527B5D" transform="translate(1829,1116)"/>
<path d="M0 0 C-0.33 1.32 -0.66 2.64 -1 4 C-1 3.34 -1 2.68 -1 2 C-1.66 2 -2.32 2 -3 2 C-3 3.32 -3 4.64 -3 6 C-2.01 6.66 -1.02 7.32 0 8 C-2.31 9.98 -4.62 11.96 -7 14 C-8 11 -8 11 -7.0625 8.6875 C-5.85073007 5.62243489 -5.84807859 3.26631039 -6 0 C-3 -1 -3 -1 0 0 Z " fill="#EBF1E3" transform="translate(639,904)"/>
<path d="M0 0 C0 2.31 0 4.62 0 7 C-3.38391693 8.06351675 -4.5804634 8.21442982 -7.8125 6.5625 C-8.534375 6.046875 -9.25625 5.53125 -10 5 C-9.67 3.68 -9.34 2.36 -9 1 C-8.34 1 -7.68 1 -7 1 C-7 1.66 -7 2.32 -7 3 C-6.5875 2.505 -6.175 2.01 -5.75 1.5 C-4 0 -4 0 0 0 Z " fill="#547E5E" transform="translate(1704,1120)"/>
<path d="M0 0 C2.97 0.495 2.97 0.495 6 1 C5.34 2.32 4.68 3.64 4 5 C4.66 5.33 5.32 5.66 6 6 C2.62902617 7.49821059 0.79557881 8 -3 8 C-3 7.34 -3 6.68 -3 6 C-3.66 5.67 -4.32 5.34 -5 5 C-3.625 3.5 -3.625 3.5 -2 2 C-1.34 2 -0.68 2 0 2 C0 1.34 0 0.68 0 0 Z " fill="#577C5D" transform="translate(1759,1040)"/>
<path d="M0 0 C4.2742558 1.5830577 6.26531794 4.50568404 9 8 C5.91190305 9.76462683 4.76687864 10 1 10 C1.33 7.69 1.66 5.38 2 3 C1.34 3 0.68 3 0 3 C0 2.01 0 1.02 0 0 Z " fill="#EAF3E5" transform="translate(1127,993)"/>
<path d="M0 0 C2 0.66666667 4 1.33333333 6 2 C6.33 3.32 6.66 4.64 7 6 C3.04 6 -0.92 6 -5 6 C-5.33 5.34 -5.66 4.68 -6 4 C-5.67 3.34 -5.34 2.68 -5 2 C-3.02 2.495 -3.02 2.495 -1 3 C-0.67 2.01 -0.34 1.02 0 0 Z " fill="#577B5E" transform="translate(465,1128)"/>
<path d="M0 0 C0 0.99 0 1.98 0 3 C-1.24176695 3.70226141 -2.49385599 4.38629109 -3.75 5.0625 C-4.44609375 5.44535156 -5.1421875 5.82820313 -5.859375 6.22265625 C-8.36140628 7.1312406 -9.5332355 6.88336837 -12 6 C-12 5.01 -12 4.02 -12 3 C-11.34 3.33 -10.68 3.66 -10 4 C-9.67 3.34 -9.34 2.68 -9 2 C-5.93853104 0.03191281 -3.59835033 -0.19990835 0 0 Z " fill="#56795E" transform="translate(1301,1122)"/>
<path d="M0 0 C0 0.66 0 1.32 0 2 C-0.99 2 -1.98 2 -3 2 C-3 2.66 -3 3.32 -3 4 C-5.26485229 6.96172992 -6.38127755 7.91337886 -10.125 8.4375 C-11.07375 8.293125 -12.0225 8.14875 -13 8 C-13.66 7.01 -14.32 6.02 -15 5 C-12.8765984 4.16260219 -10.7512272 3.33019717 -8.625 2.5 C-7.44164062 2.0359375 -6.25828125 1.571875 -5.0390625 1.09375 C-2 0 -2 0 0 0 Z " fill="#E5F0DE" transform="translate(1762,1047)"/>
<path d="M0 0 C0.33 1.32 0.66 2.64 1 4 C0.01 4.66 -0.98 5.32 -2 6 C-2.515625 6.86625 -3.03125 7.7325 -3.5625 8.625 C-4.036875 9.40875 -4.51125 10.1925 -5 11 C-5.66 11 -6.32 11 -7 11 C-7 10.34 -7 9.68 -7 9 C-9.475 8.01 -9.475 8.01 -12 7 C-9.76425178 4.76425178 -7.71033371 3.75631642 -4.875 2.375 C-3.96492188 1.92898438 -3.05484375 1.48296875 -2.1171875 1.0234375 C-1.06917969 0.51683594 -1.06917969 0.51683594 0 0 Z " fill="#E8EFE0" transform="translate(506,1123)"/>
<path d="M0 0 C0.66 0.33 1.32 0.66 2 1 C0.35 5.29 -1.3 9.58 -3 14 C-4.65 14 -6.3 14 -8 14 C-8.33 13.34 -8.66 12.68 -9 12 C-8.01 12 -7.02 12 -6 12 C-5.67 10.68 -5.34 9.36 -5 8 C-4.34 8 -3.68 8 -3 8 C-2.814375 6.2984375 -2.814375 6.2984375 -2.625 4.5625 C-2.41875 3.386875 -2.2125 2.21125 -2 1 C-1.34 0.67 -0.68 0.34 0 0 Z " fill="#617C64" transform="translate(1718,1000)"/>
<path d="M0 0 C0.99 0 1.98 0 3 0 C3.33 0.66 3.66 1.32 4 2 C1.69 4.97 -0.62 7.94 -3 11 C-5 10 -5 10 -5.9375 8.25 C-6 6 -6 6 -3.625 3.3125 C-2.75875 2.549375 -1.8925 1.78625 -1 1 C-0.67 0.67 -0.34 0.34 0 0 Z M-4 6 C-3 8 -3 8 -3 8 Z " fill="#EAF2E3" transform="translate(734,978)"/>
<path d="M0 0 C0.33 1.32 0.66 2.64 1 4 C0.4225 4.226875 -0.155 4.45375 -0.75 4.6875 C-3.18970256 5.92985689 -3.18970256 5.92985689 -5 8.5 C-6.93924781 10.92405976 -8.16317019 11.88553115 -11 13 C-9.97065637 6.97098731 -6.57790087 4.73026846 -1.8984375 1.3203125 C-1.27195312 0.88460938 -0.64546875 0.44890625 0 0 Z " fill="#62826A" transform="translate(446,1048)"/>
<path d="M0 0 C4.39158329 1.4638611 4.87947433 3.97831338 7 8 C4.66666667 8 2.33333333 8 0 8 C-0.66 5.69 -1.32 3.38 -2 1 C-1.34 0.67 -0.68 0.34 0 0 Z " fill="#67866C" transform="translate(841,980)"/>
<path d="M0 0 C2.31 0.33 4.62 0.66 7 1 C6.67 2.65 6.34 4.3 6 6 C6.66 6.33 7.32 6.66 8 7 C7.67 7.99 7.34 8.98 7 10 C6.34 9.67 5.68 9.34 5 9 C5 8.34 5 7.68 5 7 C4.38125 6.71125 3.7625 6.4225 3.125 6.125 C1 5 1 5 -1 3 C-0.67 2.01 -0.34 1.02 0 0 Z " fill="#68886E" transform="translate(1761,985)"/>
<path d="M0 0 C0.33 0 0.66 0 1 0 C1.061875 0.7425 1.12375 1.485 1.1875 2.25 C2.24185138 5.8185739 3.99909773 6.92245228 7 9 C6.34 11.31 5.68 13.62 5 16 C4.34 16 3.68 16 3 16 C0.54970669 10.28264895 -0.33266291 6.20970773 0 0 Z " fill="#DEEBDA" transform="translate(271,952)"/>
<path d="M0 0 C0 3 0 3 -1 5 C-1.99 5 -2.98 5 -4 5 C-4 5.66 -4 6.32 -4 7 C-9.50588865 12.13048715 -9.50588865 12.13048715 -14 13 C-9.89962427 7.75027653 -5.47035213 3.79037089 0 0 Z " fill="#6C8871" transform="translate(737,1049)"/>
<path d="M0 0 C6.75 0.875 6.75 0.875 9 2 C9 2.99 9 3.98 9 5 C8.34 5 7.68 5 7 5 C6.67 5.66 6.34 6.32 6 7 C6 6.34 6 5.68 6 5 C4.02 5 2.04 5 0 5 C0 3.35 0 1.7 0 0 Z " fill="#597A5F" transform="translate(314,992)"/>
<path d="M0 0 C-0.309375 0.598125 -0.61875 1.19625 -0.9375 1.8125 C-2.10209704 4.08956772 -2.10209704 4.08956772 -3 7 C-3.66 6.67 -4.32 6.34 -5 6 C-5 6.66 -5 7.32 -5 8 C-5.66 8 -6.32 8 -7 8 C-7.33 5.69 -7.66 3.38 -8 1 C-3.375 -1.125 -3.375 -1.125 0 0 Z " fill="#557B61" transform="translate(802,1103)"/>
<path d="M0 0 C0.66 0.33 1.32 0.66 2 1 C1.06398754 2.41764994 0.1261208 3.83407568 -0.8125 5.25 C-1.33457031 6.03890625 -1.85664062 6.8278125 -2.39453125 7.640625 C-3.87134122 9.81092481 -5.40689873 11.91413768 -7 14 C-7.66 12.68 -8.32 11.36 -9 10 C-8.34 10 -7.68 10 -7 10 C-6.95875 9.278125 -6.9175 8.55625 -6.875 7.8125 C-5.61647835 3.76725183 -3.36410883 2.50518743 0 0 Z " fill="#E7F2E1" transform="translate(1686,1058)"/>
<path d="M0 0 C-0.66 1.98 -1.32 3.96 -2 6 C-2.66 5.67 -3.32 5.34 -4 5 C-4.99 5 -5.98 5 -7 5 C-6.67 5.66 -6.34 6.32 -6 7 C-7.32 6.67 -8.64 6.34 -10 6 C-10 4.68 -10 3.36 -10 2 C-3.375 0 -3.375 0 0 0 Z " fill="#EFF7E7" transform="translate(797,1049)"/>
<path d="M0 0 C1.051875 0.495 1.051875 0.495 2.125 1 C4.9944391 2.17452658 4.9944391 2.17452658 8.1875 2 C9.115625 2 10.04375 2 11 2 C11.66 2.66 12.32 3.32 13 4 C11.26150372 5.73849628 8.9213363 5.17216296 6.5625 5.1875 C5.57378906 5.20167969 4.58507813 5.21585938 3.56640625 5.23046875 C1 5 1 5 -1 3 C-0.34 2.67 0.32 2.34 1 2 C0.67 1.34 0.34 0.68 0 0 Z " fill="#577960" transform="translate(1340,1128)"/>
<path d="M0 0 C0.66 0 1.32 0 2 0 C3.38442 1.96498322 4.71203834 3.97048465 6 6 C6.98866506 7.34175973 7.9838154 8.67896002 9 10 C8.01 10.66 7.02 11.32 6 12 C3.36021174 8.81404865 0.89501612 5.69029454 -1 2 C-0.67 1.34 -0.34 0.68 0 0 Z " fill="#698871" transform="translate(1266,1094)"/>
<path d="M0 0 C0.66 0 1.32 0 2 0 C2 7.92 2 15.84 2 24 C1.67 24 1.34 24 1 24 C1 20.37 1 16.74 1 13 C0.34 13 -0.32 13 -1 13 C-0.67 8.71 -0.34 4.42 0 0 Z " fill="#E7F8E5" transform="translate(1596,1072)"/>
<path d="M0 0 C1.32 0.33 2.64 0.66 4 1 C4 1.99 4 2.98 4 4 C4.3062434 5.33981486 4.63451555 6.67511887 5 8 C4.34 8 3.68 8 3 8 C3 13.28 3 18.56 3 24 C2.67 24 2.34 24 2 24 C1.93941406 22.68644531 1.87882812 21.37289062 1.81640625 20.01953125 C1.73196744 18.28384459 1.64732112 16.54816802 1.5625 14.8125 C1.52318359 13.94818359 1.48386719 13.08386719 1.44335938 12.19335938 C1.23652984 8.04085878 0.99896469 4.05462138 0 0 Z " fill="#7A9780" transform="translate(1771,1000)"/>
<path d="M0 0 C0 1.32 0 2.64 0 4 C-4.27113698 6.18326108 -8.50202887 8.31326082 -13 10 C-5.27272727 0 -5.27272727 0 0 0 Z " fill="#68856E" transform="translate(456,974)"/>
<path d="M0 0 C0.33 0.66 0.66 1.32 1 2 C3.97 2 6.94 2 10 2 C9.67 2.66 9.34 3.32 9 4 C8.01 4.33 7.02 4.66 6 5 C6 5.66 6 6.32 6 7 C3.625 7.125 3.625 7.125 1 7 C0.34 6.34 -0.32 5.68 -1 5 C-0.625 2.375 -0.625 2.375 0 0 Z " fill="#52785D" transform="translate(1325,1118)"/>
<path d="M0 0 C-0.33 1.65 -0.66 3.3 -1 5 C-2.65 5.33 -4.3 5.66 -6 6 C-6.66 4.35 -7.32 2.7 -8 1 C-4.93251126 -0.86240388 -3.40254489 -1.2151946 0 0 Z " fill="#53765F" transform="translate(1383,1117)"/>
<path d="M0 0 C-0.33 1.65 -0.66 3.3 -1 5 C-3.875 5.125 -3.875 5.125 -7 5 C-7.66 4.34 -8.32 3.68 -9 3 C-8.67 2.01 -8.34 1.02 -8 0 C-2.25 -1.125 -2.25 -1.125 0 0 Z " fill="#568060" transform="translate(240,1067)"/>
<path d="M0 0 C0.33 0 0.66 0 1 0 C1.33 2.97 1.66 5.94 2 9 C3.32 8.67 4.64 8.34 6 8 C6.66 8.66 7.32 9.32 8 10 C7.34 10 6.68 10 6 10 C6 10.99 6 11.98 6 13 C5.01 13 4.02 13 3 13 C3 12.34 3 11.68 3 11 C2.34 11 1.68 11 1 11 C-0.62950412 6.87831311 -1.26264601 4.29299643 0 0 Z " fill="#EFF1E4" transform="translate(190,120)"/>
<path d="M0 0 C1.87620422 3.16609462 2.09662822 5.35832401 2 9 C0.68388323 8.04663979 -0.62778961 7.08714226 -1.9375 6.125 C-2.66839844 5.59132813 -3.39929688 5.05765625 -4.15234375 4.5078125 C-6 3 -6 3 -7 1 C-4.53721199 -0.231394 -2.7204945 -0.07159196 0 0 Z " fill="#E1EDDD" transform="translate(379,1015)"/>
<path d="M0 0 C0.66 0.99 1.32 1.98 2 3 C1.649375 3.598125 1.29875 4.19625 0.9375 4.8125 C-0.33304698 7.10813214 -0.33304698 7.10813214 1 10 C-0.65 10 -2.3 10 -4 10 C-4.8125 8.375 -4.8125 8.375 -5 6 C-3.53181864 3.75390165 -1.84147142 1.97621323 0 0 Z " fill="#E6F0DF" transform="translate(1461,998)"/>
<path d="M0 0 C2 0.25 2 0.25 4 1 C4.33 1.99 4.66 2.98 5 4 C2.6226839 6.3773161 1.29714793 6.67028521 -2 7 C-2.66 6.34 -3.32 5.68 -4 5 C-3.34 5 -2.68 5 -2 5 C-1.7834375 4.0409375 -1.7834375 4.0409375 -1.5625 3.0625 C-1 1 -1 1 0 0 Z " fill="#EEF1E3" transform="translate(340,993)"/>
<path d="M0 0 C0 0.66 0 1.32 0 2 C-4.62 3.32 -9.24 4.64 -14 6 C-14 5.34 -14 4.68 -14 4 C-12.68 4 -11.36 4 -10 4 C-10 3.34 -10 2.68 -10 2 C-6.37626474 -0.79545292 -4.37834956 -1.37605272 0 0 Z " fill="#E8F4E4" transform="translate(771,1034)"/>
<path d="M0 0 C0.2358396 5.77807024 -0.13216954 10.51324804 -2 16 C-2.66 15.67 -3.32 15.34 -4 15 C-3.88658363 12.68690295 -3.75896193 10.37449815 -3.625 8.0625 C-3.55539062 6.77472656 -3.48578125 5.48695313 -3.4140625 4.16015625 C-3.27742188 3.11730469 -3.14078125 2.07445312 -3 1 C-1 0 -1 0 0 0 Z " fill="#6B8870" transform="translate(1319,1011)"/>
<path d="M0 0 C0.33 0.66 0.66 1.32 1 2 C0.06027344 2.09087891 0.06027344 2.09087891 -0.8984375 2.18359375 C-1.71570312 2.26738281 -2.53296875 2.35117187 -3.375 2.4375 C-4.18710938 2.51871094 -4.99921875 2.59992187 -5.8359375 2.68359375 C-8.04272805 2.89090114 -8.04272805 2.89090114 -10 4 C-12.625 3.0625 -12.625 3.0625 -15 2 C-15 1.67 -15 1.34 -15 1 C-10.03926578 -0.32286246 -5.08888488 -0.08893197 0 0 Z " fill="#6D8B73" transform="translate(1294,962)"/>
<path d="M0 0 C0.66 0.33 1.32 0.66 2 1 C0.68 2.65 -0.64 4.3 -2 6 C-2.33 5.67 -2.66 5.34 -3 5 C-3.33 5.99 -3.66 6.98 -4 8 C-4.99 7.67 -5.98 7.34 -7 7 C-6.67 5.02 -6.34 3.04 -6 1 C-4.7934375 1.0309375 -4.7934375 1.0309375 -3.5625 1.0625 C-1.06645115 1.29633621 -1.06645115 1.29633621 0 0 Z " fill="#62886A" transform="translate(1727,1064)"/>
<path d="M0 0 C0.99 0 1.98 0 3 0 C4.1577506 3.47325181 4.06866652 6.36067448 4 10 C3.34 10 2.68 10 2 10 C2 10.99 2 11.98 2 13 C1.01 12.67 0.02 12.34 -1 12 C-0.67 8.04 -0.34 4.08 0 0 Z " fill="#678A6F" transform="translate(811,1014)"/>
<path d="M0 0 C0.66 0.33 1.32 0.66 2 1 C1.67 1.99 1.34 2.98 1 4 C1 4.99 1 5.98 1 7 C0.01 7.66 -0.98 8.32 -2 9 C-2 8.01 -2 7.02 -2 6 C-2.99 5.67 -3.98 5.34 -5 5 C-3.35 3.35 -1.7 1.7 0 0 Z M2 1 C2.99 1.495 2.99 1.495 4 2 C4 2.66 4 3.32 4 4 C3.34 4 2.68 4 2 4 C2 3.01 2 2.02 2 1 Z " fill="#577A5F" transform="translate(516,1094)"/>
<path d="M0 0 C0.33 0.99 0.66 1.98 1 3 C2.32 2.67 3.64 2.34 5 2 C3.8141763 5.37503669 2.72426311 7.64722731 0 10 C-1.60339848 6.88228073 -2.18974141 5.60988311 -1.125 2.1875 C-0.75375 1.465625 -0.3825 0.74375 0 0 Z " fill="#ECF3E5" transform="translate(259,1079)"/>
<path d="M0 0 C0.66 0.33 1.32 0.66 2 1 C1.67 2.32 1.34 3.64 1 5 C1.66 5.33 2.32 5.66 3 6 C1.68 5.67 0.36 5.34 -1 5 C-1.28875 5.969375 -1.5775 6.93875 -1.875 7.9375 C-3 11 -3 11 -5 12 C-4.25 5.375 -4.25 5.375 -2 2 C-1.34 2 -0.68 2 0 2 C0 1.34 0 0.68 0 0 Z " fill="#577A60" transform="translate(429,1066)"/>
<path d="M0 0 C0.33 0.99 0.66 1.98 1 3 C0.38125 3.5775 -0.2375 4.155 -0.875 4.75 C-3.03727238 6.8136037 -3.03727238 6.8136037 -4 9.0625 C-5.23896532 11.46299531 -6.77730661 12.5182044 -9 14 C-7.64002446 7.95566426 -4.14348206 4.36505864 0 0 Z " fill="#E8F4E4" transform="translate(1733,1060)"/>
<path d="M0 0 C-2.3129482 2.3129482 -3.47904875 2.49580975 -6.625 3.125 C-7.44226562 3.29257813 -8.25953125 3.46015625 -9.1015625 3.6328125 C-10.04128906 3.81457031 -10.04128906 3.81457031 -11 4 C-10.67 2.35 -10.34 0.7 -10 -1 C-6.06329512 -2.31223496 -3.87511856 -1.24296256 0 0 Z " fill="#E8F4E3" transform="translate(1276,1035)"/>
<path d="M0 0 C0.99 0.33 1.98 0.66 3 1 C2.67 3.97 2.34 6.94 2 10 C-1.01327566 8.49336217 -1.61056618 5.96833589 -3 3 C-2.01 2.01 -1.02 1.02 0 0 Z " fill="#F9FDF4" transform="translate(1499,1006)"/>
<path d="M0 0 C-1.1446875 0.680625 -1.1446875 0.680625 -2.3125 1.375 C-4.23632814 2.53824492 -6.12941224 3.7529415 -8 5 C-9.98 4.01 -11.96 3.02 -14 2 C-9.67824205 -0.88117196 -4.98826624 -1.79577585 0 0 Z " fill="#6F8C73" transform="translate(784,963)"/>
<path d="M0 0 C1.98 0.495 1.98 0.495 4 1 C3.67 2.32 3.34 3.64 3 5 C3.99 4.67 4.98 4.34 6 4 C6.33 4.99 6.66 5.98 7 7 C4.6875 7.6875 4.6875 7.6875 2 8 C0.1875 6.6875 0.1875 6.6875 -1 5 C-1 3 -1 3 0 0 Z " fill="#F8FBF3" transform="translate(281,936)"/>
<path d="M0 0 C1.32 1.32 2.64 2.64 4 4 C4 3.34 4 2.68 4 2 C5.32 2.33 6.64 2.66 8 3 C8 3.99 8 4.98 8 6 C7.01 5.67 6.02 5.34 5 5 C4.34 5.66 3.68 6.32 3 7 C0.875 6.625 0.875 6.625 -1 6 C-1.625 4.125 -1.625 4.125 -2 2 C-1.34 1.34 -0.68 0.68 0 0 Z " fill="#678B71" transform="translate(1231,1057)"/>
<path d="M0 0 C0.66 0.33 1.32 0.66 2 1 C2 2.32 2 3.64 2 5 C1.01 5.33 0.02 5.66 -1 6 C-2.22969878 9.51190809 -2.22969878 9.51190809 -3 13 C-3.66 13 -4.32 13 -5 13 C-4.48474397 7.71862571 -2.74522883 4.42778844 0 0 Z " fill="#698670" transform="translate(1694,987)"/>
<path d="M0 0 C0.66 0 1.32 0 2 0 C3.625 2 3.625 2 5 4 C4.67 4.66 4.34 5.32 4 6 C1.36 6 -1.28 6 -4 6 C-4 4.35 -4 2.7 -4 1 C-2.68 1.33 -1.36 1.66 0 2 C0 1.34 0 0.68 0 0 Z " fill="#F9FBF3" transform="translate(1292,986)"/>
<path d="M0 0 C0.99 0.33 1.98 0.66 3 1 C1.625 3 1.625 3 0 5 C-0.66 5 -1.32 5 -2 5 C-2.28875 5.639375 -2.5775 6.27875 -2.875 6.9375 C-4 9 -4 9 -6 10 C-5.58578031 5.16743695 -3.53586014 3.17320782 0 0 Z " fill="#64856C" transform="translate(1245,978)"/>
<path d="M0 0 C0.33 0 0.66 0 1 0 C1.33 3.63 1.66 7.26 2 11 C1.67 10.34 1.34 9.68 1 9 C0.01 9.99 -0.98 10.98 -2 12 C-2.99 11.67 -3.98 11.34 -5 11 C-5 10.34 -5 9.68 -5 9 C-4.34 8.67 -3.68 8.34 -3 8 C-2.67 7.01 -2.34 6.02 -2 5 C-1.34 5 -0.68 5 0 5 C0 3.35 0 1.7 0 0 Z " fill="#66886F" transform="translate(381,932)"/>
<path d="M0 0 C-0.33 1.65 -0.66 3.3 -1 5 C-0.34 5.33 0.32 5.66 1 6 C-2 6 -2 6 -5 4 C-5.99 4.33 -6.98 4.66 -8 5 C-8.33 4.34 -8.66 3.68 -9 3 C-3.375 0 -3.375 0 0 0 Z " fill="#EFF1E4" transform="translate(85,1807)"/>
<path d="M0 0 C-0.66 1.32 -1.32 2.64 -2 4 C-2.61875 3.79375 -3.2375 3.5875 -3.875 3.375 C-4.57625 3.25125 -5.2775 3.1275 -6 3 C-6.66 3.66 -7.32 4.32 -8 5 C-8.66 5 -9.32 5 -10 5 C-10 4.34 -10 3.68 -10 3 C-10.99 2.67 -11.98 2.34 -13 2 C-11.39935157 1.46845258 -9.79431126 0.95011647 -8.1875 0.4375 C-7.29417969 0.14746094 -6.40085937 -0.14257812 -5.48046875 -0.44140625 C-3 -1 -3 -1 0 0 Z " fill="#E5F1E3" transform="translate(1293,1130)"/>
<path d="M0 0 C2.31 0.66 4.62 1.32 7 2 C6.01 2.33 5.02 2.66 4 3 C4 3.99 4 4.98 4 6 C-0.75 5.25 -0.75 5.25 -3 3 C-2.01 3 -1.02 3 0 3 C0 2.01 0 1.02 0 0 Z M-3 5 C-1 6 -1 6 -1 6 Z " fill="#E9F2E2" transform="translate(1243,1129)"/>
<path d="M0 0 C0.99 0.33 1.98 0.66 3 1 C2.06725891 2.12894876 1.12859878 3.25300876 0.1875 4.375 C-0.33457031 5.00148438 -0.85664063 5.62796875 -1.39453125 6.2734375 C-3 8 -3 8 -6 10 C-5.58578031 5.16743695 -3.53586014 3.17320782 0 0 Z " fill="#E5F1E3" transform="translate(437,1051)"/>
<path d="M0 0 C0.66 0 1.32 0 2 0 C2 1.32 2 2.64 2 4 C3.4166747 5.7511573 3.4166747 5.7511573 5 7 C0.72290301 7 -0.55930376 6.29379749 -4 4 C-2.66666667 2.66666667 -1.33333333 1.33333333 0 0 Z " fill="#66876B" transform="translate(260,1018)"/>
<path d="M0 0 C13.6332574 -0.18451025 13.6332574 -0.18451025 20 1 C20 1.33 20 1.66 20 2 C14.62741108 2.84830351 10.41014537 2.91870393 5 2 C3.33371045 1.96454703 1.66590197 1.94951812 0 2 C0 1.34 0 0.68 0 0 Z " fill="#F6FEF2" transform="translate(663,990)"/>
<path d="M0 0 C0.99 0.33 1.98 0.66 3 1 C2 4 2 4 -0.06640625 5.16796875 C-0.89011719 5.50441406 -1.71382812 5.84085938 -2.5625 6.1875 C-3.38878906 6.53167969 -4.21507812 6.87585938 -5.06640625 7.23046875 C-5.70449219 7.48441406 -6.34257813 7.73835937 -7 8 C-7.33 7.34 -7.66 6.68 -8 6 C-7.505 5.525625 -7.01 5.05125 -6.5 4.5625 C-4.88457803 3.24076302 -4.88457803 3.24076302 -5 2 C-3.35 2 -1.7 2 0 2 C0 1.34 0 0.68 0 0 Z " fill="#E5F0DF" transform="translate(1109,963)"/>
<path d="M0 0 C0.99 0 1.98 0 3 0 C3.1875 3.375 3.1875 3.375 3 7 C2.01 7.66 1.02 8.32 0 9 C-1.36623674 6.26752652 -1.128426 4.01801098 -1 1 C-0.67 0.67 -0.34 0.34 0 0 Z " fill="#51785C" transform="translate(1312,1106)"/>
<path d="M0 0 C0.33 0 0.66 0 1 0 C1 1.65 1 3.3 1 5 C1.99 5.33 2.98 5.66 4 6 C3 8 3 8 2 9 C-0.0625 8.5625 -0.0625 8.5625 -2 8 C-2.33 6.02 -2.66 4.04 -3 2 C-2.01 2.495 -2.01 2.495 -1 3 C-0.67 2.01 -0.34 1.02 0 0 Z " fill="#517B5D" transform="translate(1084,982)"/>
<path d="M0 0 C2.31 1.98 4.62 3.96 7 6 C4 7 4 7 1 6 C0.34 6.66 -0.32 7.32 -1 8 C-1.125 2.25 -1.125 2.25 0 0 Z " fill="#66866B" transform="translate(545,975)"/>
<path d="M0 0 C0 0.66 0 1.32 0 2 C-0.99 2 -1.98 2 -3 2 C-3.33 4.31 -3.66 6.62 -4 9 C-4.66 9 -5.32 9 -6 9 C-6.33 8.01 -6.66 7.02 -7 6 C-7.99 5.67 -8.98 5.34 -10 5 C-8.71186658 4.16121545 -7.41936744 3.32913217 -6.125 2.5 C-5.40570312 2.0359375 -4.68640625 1.571875 -3.9453125 1.09375 C-2 0 -2 0 0 0 Z " fill="#648169" transform="translate(1478,967)"/>
<path d="M0 0 C0.66 0.33 1.32 0.66 2 1 C0.68 3.64 -0.64 6.28 -2 9 C-2.66 9 -3.32 9 -4 9 C-4.33 7.35 -4.66 5.7 -5 4 C-3.35 2.68 -1.7 1.36 0 0 Z " fill="#E9F5E5" transform="translate(238,938)"/>
<path d="M0 0 C0.66 0.99 1.32 1.98 2 3 C1.01 4.485 1.01 4.485 0 6 C-2.31 5.34 -4.62 4.68 -7 4 C-6.67 3.01 -6.34 2.02 -6 1 C-4.02 0.67 -2.04 0.34 0 0 Z " fill="#EBF1E5" transform="translate(717,899)"/>
<path d="M0 0 C0.33 0.66 0.66 1.32 1 2 C0.67 2.99 0.34 3.98 0 5 C0.66 5 1.32 5 2 5 C2.33 3.68 2.66 2.36 3 1 C3.93423645 4.01031744 4.04449911 4.86650268 3 8 C1.68 7.67 0.36 7.34 -1 7 C-1.625 4.625 -1.625 4.625 -2 2 C-1.34 1.34 -0.68 0.68 0 0 Z " fill="#EEF0E3" transform="translate(172,2022)"/>
<path d="M0 0 C2.31 0.33 4.62 0.66 7 1 C8.15837626 5.05431692 7.83691257 7.21812119 6 11 C5.01 10.67 4.02 10.34 3 10 C3.66 9.67 4.32 9.34 5 9 C4.67 6.69 4.34 4.38 4 2 C2.68 1.67 1.36 1.34 0 1 C0 0.67 0 0.34 0 0 Z " fill="#DCE7DA" transform="translate(581,1112)"/>
<path d="M0 0 C0.66 1.32 1.32 2.64 2 4 C2.66 3.67 3.32 3.34 4 3 C3.47731534 5.76276177 2.89130413 8.3260876 2 11 C2.66 11 3.32 11 4 11 C3.67 11.99 3.34 12.98 3 14 C-0.2102122 10.7897878 0.01025241 7.62539686 -0.0625 3.1875 C-0.041875 2.135625 -0.02125 1.08375 0 0 Z " fill="#728E76" transform="translate(1219,1091)"/>
<path d="M0 0 C0.66 0.33 1.32 0.66 2 1 C1.8125 2.8125 1.8125 2.8125 1 5 C-1.90696599 7.14197494 -3.35521088 8 -7 8 C-4.69 5.36 -2.38 2.72 0 0 Z " fill="#E4F0E0" transform="translate(479,1060)"/>
<path d="M0 0 C-0.66 1.98 -1.32 3.96 -2 6 C-4.5 4.625 -4.5 4.625 -7 3 C-7 2.34 -7 1.68 -7 1 C-3.375 -1.125 -3.375 -1.125 0 0 Z " fill="#69816B" transform="translate(714,931)"/>
<path d="M0 0 C0.66 0 1.32 0 2 0 C2 0.99 2 1.98 2 3 C3.175625 3.185625 3.175625 3.185625 4.375 3.375 C7 4 7 4 9 6 C8.34 6.66 7.68 7.32 7 8 C4.36 6.35 1.72 4.7 -1 3 C-0.67 2.01 -0.34 1.02 0 0 Z " fill="#65836B" transform="translate(694,920)"/>
<path d="M0 0 C1.11375 0.3403125 1.11375 0.3403125 2.25 0.6875 C-0.8754959 3.33215038 -3.83788267 4.53164715 -7.75 5.6875 C-6.3502077 1.48812309 -4.58927239 -0.52150823 0 0 Z " fill="#66846D" transform="translate(578.75,1123.3125)"/>
<path d="M0 0 C2.475 0.99 2.475 0.99 5 2 C4.01 2.495 4.01 2.495 3 3 C3.83333333 5.16666667 3.83333333 5.16666667 6 6 C4.625 7.5 4.625 7.5 3 9 C2.34 9 1.68 9 1 9 C0.67 6.03 0.34 3.06 0 0 Z " fill="#567A5F" transform="translate(505,1114)"/>
<path d="M0 0 C0.99 0.33 1.98 0.66 3 1 C2.01 2.98 1.02 4.96 0 7 C-1.32 6.67 -2.64 6.34 -4 6 C-2.84826645 3.53199953 -1.95216435 1.95216435 0 0 Z " fill="#66896E" transform="translate(1268,1064)"/>
<path d="M0 0 C0.66 0 1.32 0 2 0 C2 2.97 2 5.94 2 9 C1.01 9 0.02 9 -1 9 C-1.09765625 2.84765625 -1.09765625 2.84765625 -1 1 C-0.67 0.67 -0.34 0.34 0 0 Z " fill="#597960" transform="translate(394,1059)"/>
<path d="M0 0 C0 0.99 0 1.98 0 3 C-3.85756507 5.15305957 -6.55129785 6.39253254 -11 6 C-7.58983503 3.13546142 -4.09305456 1.65296434 0 0 Z " fill="#66846D" transform="translate(461,1041)"/>
<path d="M0 0 C-0.33 0.99 -0.66 1.98 -1 3 C-2.62171239 3.38897161 -4.24754925 3.76078298 -5.875 4.125 C-6.77992188 4.33382813 -7.68484375 4.54265625 -8.6171875 4.7578125 C-9.40351563 4.83773438 -10.18984375 4.91765625 -11 5 C-11.66 4.34 -12.32 3.68 -13 3 C-11.39743892 2.49487756 -9.79288208 1.99608373 -8.1875 1.5 C-7.29417969 1.2215625 -6.40085937 0.943125 -5.48046875 0.65625 C-3 0 -3 0 0 0 Z " fill="#6F8873" transform="translate(479,1036)"/>
<path d="M0 0 C1.2077558 3.62326739 0.54311128 4.64146369 -1 8 C-2.65 7.67 -4.3 7.34 -6 7 C-5.34 6.01 -4.68 5.02 -4 4 C-3.34 4 -2.68 4 -2 4 C-1.34 2.68 -0.68 1.36 0 0 Z " fill="#5B765E" transform="translate(753,1006)"/>
<path d="M0 0 C0.33 0 0.66 0 1 0 C1 1.65 1 3.3 1 5 C1.99 5 2.98 5 4 5 C3.67 6.98 3.34 8.96 3 11 C0.87961365 8.38485683 -1.13091744 5.80362384 -3 3 C-2.34 3 -1.68 3 -1 3 C-0.67 2.01 -0.34 1.02 0 0 Z " fill="#68856E" transform="translate(1311,989)"/>
<path d="M0 0 C3.375 -0.1875 3.375 -0.1875 7 0 C7.66 0.99 8.32 1.98 9 3 C5.7 3 2.4 3 -1 3 C-0.67 2.01 -0.34 1.02 0 0 Z " fill="#527259" transform="translate(547,1130)"/>
<path d="M0 0 C0.66 0 1.32 0 2 0 C2.66 2.31 3.32 4.62 4 7 C2.35 7 0.7 7 -1 7 C-1.625 5.1875 -1.625 5.1875 -2 3 C-1.34 2.01 -0.68 1.02 0 0 Z " fill="#E0F1DE" transform="translate(811,1110)"/>
<path d="M0 0 C2.4375 0.75 2.4375 0.75 5 2 C5.8125 4.125 5.8125 4.125 6 6 C5.34 6 4.68 6 4 6 C4 5.34 4 4.68 4 4 C3.34 4 2.68 4 2 4 C1.67 4.66 1.34 5.32 1 6 C0.01 6 -0.98 6 -2 6 C-2 5.34 -2 4.68 -2 4 C-1.34 3.67 -0.68 3.34 0 3 C0 2.01 0 1.02 0 0 Z " fill="#567A60" transform="translate(571,1113)"/>
<path d="M0 0 C2.1385485 2.1385485 2.42655063 3.13275314 3 6 C2.2575 5.79375 1.515 5.5875 0.75 5.375 C-2.32478148 4.6924227 -2.32478148 4.6924227 -6 7 C-4.02 4.69 -2.04 2.38 0 0 Z " fill="#DFEFDE" transform="translate(1774,1110)"/>
<path d="M0 0 C1.32 0.66 2.64 1.32 4 2 C3.67 3.32 3.34 4.64 3 6 C1.68 6.33 0.36 6.66 -1 7 C-2 4 -2 4 -1.0625 1.8125 C-0.5365625 0.9153125 -0.5365625 0.9153125 0 0 Z " fill="#5A7E5E" transform="translate(370,1016)"/>
<path d="M0 0 C0.99 0.33 1.98 0.66 3 1 C2.34 3.31 1.68 5.62 1 8 C0.34 7.34 -0.32 6.68 -1 6 C-2.32 7.32 -3.64 8.64 -5 10 C-5.33 9.34 -5.66 8.68 -6 8 C-5.34 8 -4.68 8 -4 8 C-3.71125 7.4225 -3.4225 6.845 -3.125 6.25 C-2.08333333 4.16666667 -1.04166667 2.08333333 0 0 Z " fill="#E4F0DF" transform="translate(435,992)"/>
<path d="M0 0 C1.74627478 2.61941217 2.38722388 4.03824877 3 7 C1.68 7.33 0.36 7.66 -1 8 C-1.12375 7.195625 -1.2475 6.39125 -1.375 5.5625 C-1.684375 4.2940625 -1.684375 4.2940625 -2 3 C-2.66 2.67 -3.32 2.34 -4 2 C-3.34 1.67 -2.68 1.34 -2 1 C-1.34 1.33 -0.68 1.66 0 2 C0 1.34 0 0.68 0 0 Z " fill="#6A8A73" transform="translate(1180,989)"/>
<path d="M0 0 C0.33 0.66 0.66 1.32 1 2 C1.66 2.33 2.32 2.66 3 3 C0.33333333 4.33333333 -2.33333333 5.66666667 -5 7 C-5.66 6.34 -6.32 5.68 -7 5 C-4.69 3.35 -2.38 1.7 0 0 Z " fill="#638069" transform="translate(1708,974)"/>
<path d="M0 0 C0.99 0.33 1.98 0.66 3 1 C2.67 2.65 2.34 4.3 2 6 C1.21625 5.814375 0.4325 5.62875 -0.375 5.4375 C-2.97089775 4.74037734 -2.97089775 4.74037734 -5 6 C-4.67 4.35 -4.34 2.7 -4 1 C-3.01 1 -2.02 1 -1 1 C-0.67 0.67 -0.34 0.34 0 0 Z " fill="#E6EDDD" transform="translate(1019,970)"/>
<path d="M0 0 C0.66 0.33 1.32 0.66 2 1 C-0.6598561 4.44216672 -3.90288286 4.99504674 -8 6 C-8.33 5.34 -8.66 4.68 -9 4 C-7.54618103 3.30300448 -6.08677047 2.61766134 -4.625 1.9375 C-3.40683594 1.36322266 -3.40683594 1.36322266 -2.1640625 0.77734375 C-1.44992187 0.52082031 -0.73578125 0.26429688 0 0 Z " fill="#67846C" transform="translate(1265,967)"/>
<path d="M0 0 C0.33 0.99 0.66 1.98 1 3 C-1.31 4.98 -3.62 6.96 -6 9 C-6.33 8.01 -6.66 7.02 -7 6 C-4.69 4.02 -2.38 2.04 0 0 Z " fill="#EFF1E4" transform="translate(439,1904)"/>
<path d="M0 0 C4.29 0.99 8.58 1.98 13 3 C8.81924919 5.0903754 8.41186737 5.22667078 4.25 4.125 C3.45078125 3.92132812 2.6515625 3.71765625 1.828125 3.5078125 C0.92320313 3.25644531 0.92320313 3.25644531 0 3 C0 2.01 0 1.02 0 0 Z " fill="#E1F0DD" transform="translate(1702,1130)"/>
<path d="M0 0 C2.25 0.25 2.25 0.25 4 1 C2.68 2.65 1.36 4.3 0 6 C-1.32 5.34 -2.64 4.68 -4 4 C-2.25 1.9375 -2.25 1.9375 0 0 Z " fill="#527358" transform="translate(1767,1112)"/>
<path d="M0 0 C-1.25 2 -1.25 2 -3 4 C-7 4 -7 4 -10 2 C-6.3558226 -0.4294516 -4.28758728 -0.16179575 0 0 Z " fill="#55785D" transform="translate(376,1111)"/>
<path d="M0 0 C2.31 0 4.62 0 7 0 C7 0.66 7 1.32 7 2 C3.98509443 3.00496852 1.95818308 3.10335303 -1.1875 3.0625 C-2.53908203 3.04896484 -2.53908203 3.04896484 -3.91796875 3.03515625 C-4.60503906 3.02355469 -5.29210938 3.01195312 -6 3 C-6 2.67 -6 2.34 -6 2 C-4.02 2 -2.04 2 0 2 C0 1.34 0 0.68 0 0 Z " fill="#DDECDB" transform="translate(1745,1104)"/>
<path d="M0 0 C1.32 0.66 2.64 1.32 4 2 C3.67 6.29 3.34 10.58 3 15 C2.67 15 2.34 15 2 15 C1.92652344 13.93458984 1.92652344 13.93458984 1.8515625 12.84765625 C1.73941406 11.46900391 1.73941406 11.46900391 1.625 10.0625 C1.55539062 9.14597656 1.48578125 8.22945312 1.4140625 7.28515625 C1.27742188 6.53105469 1.14078125 5.77695313 1 5 C0.34 4.67 -0.32 4.34 -1 4 C-0.67 2.68 -0.34 1.36 0 0 Z " fill="#7C9A81" transform="translate(466,1071)"/>
<path d="M0 0 C-0.66 1.98 -1.32 3.96 -2 6 C-2.66 5.67 -3.32 5.34 -4 5 C-4.66 6.32 -5.32 7.64 -6 9 C-7.37245106 6.25509788 -6.93580311 4.87939419 -6 2 C-3.84898936 0.54286376 -2.59713506 0 0 0 Z " fill="#E5EFDF" transform="translate(720,1066)"/>
<path d="M0 0 C1.65 0.33 3.3 0.66 5 1 C3.63016497 4.16115776 3.0109362 4.9927092 0 7 C-0.93423645 3.98968256 -1.04449911 3.13349732 0 0 Z " fill="#64886B" transform="translate(1729,1057)"/>
<path d="M0 0 C4.29 0 8.58 0 13 0 C13 0.33 13 0.66 13 1 C9.92382812 1.29296875 9.92382812 1.29296875 6.84765625 1.5859375 C6.23792969 1.72257813 5.62820313 1.85921875 5 2 C4.67 2.66 4.34 3.32 4 4 C3.01 4 2.02 4 1 4 C0.67 2.68 0.34 1.36 0 0 Z " fill="#58715B" transform="translate(1402,966)"/>
<path d="M0 0 C0.66 0.33 1.32 0.66 2 1 C1.67 2.65 1.34 4.3 1 6 C-0.32 6.33 -1.64 6.66 -3 7 C-3.33 6.01 -3.66 5.02 -4 4 C-2.68 2.68 -1.36 1.36 0 0 Z " fill="#587961" transform="translate(637,913)"/>
<path d="M0 0 C-0.33 1.32 -0.66 2.64 -1 4 C-3.31 4.66 -5.62 5.32 -8 6 C-8.66 5.34 -9.32 4.68 -10 4 C-8.71086513 3.32845067 -7.41859796 2.66291141 -6.125 2 C-5.40570312 1.62875 -4.68640625 1.2575 -3.9453125 0.875 C-2 0 -2 0 0 0 Z " fill="#DDEDDA" transform="translate(1303,1124)"/>
<path d="M0 0 C0.33 0.66 0.66 1.32 1 2 C0.06553465 4.03144641 -0.93224776 6.03533587 -2 8 C-2.99 8 -3.98 8 -5 8 C-4.64950425 4.75791433 -4.43778819 3.38472296 -1.9375 1.1875 C-1.298125 0.795625 -0.65875 0.40375 0 0 Z " fill="#E8F2E2" transform="translate(1308,1119)"/>
<path d="M0 0 C0.66 0.33 1.32 0.66 2 1 C1.67 1.33 1.34 1.66 1 2 C1.66 2.66 2.32 3.32 3 4 C0 6 0 6 -2.6875 5.625 C-3.450625 5.41875 -4.21375 5.2125 -5 5 C-3.35 3.35 -1.7 1.7 0 0 Z " fill="#DFEDDC" transform="translate(776,1056)"/>
<path d="M0 0 C0.33 0 0.66 0 1 0 C1 3.3 1 6.6 1 10 C-2.3 10 -5.6 10 -9 10 C-9 9.67 -9 9.34 -9 9 C-5.535 8.505 -5.535 8.505 -2 8 C-1.34 5.36 -0.68 2.72 0 0 Z " fill="#536E57" transform="translate(696,979)"/>
<path d="M0 0 C0.66 0.33 1.32 0.66 2 1 C0.25 6.75 0.25 6.75 -2 9 C-3.125 4.25 -3.125 4.25 -2 2 C-1.34 1.34 -0.68 0.68 0 0 Z " fill="#54795E" transform="translate(364,951)"/>
<path d="M0 0 C1.2065625 0.0309375 1.2065625 0.0309375 2.4375 0.0625 C0.7875 2.0425 -0.8625 4.0225 -2.5625 6.0625 C-3.2225 5.7325 -3.8825 5.4025 -4.5625 5.0625 C-3.43829114 0.08386076 -3.43829114 0.08386076 0 0 Z " fill="#68876F" transform="translate(671.5625,923.9375)"/>
<path d="M0 0 C0.6875 1.8125 0.6875 1.8125 1 4 C-0.4375 5.75 -0.4375 5.75 -2 7 C-2 6.34 -2 5.68 -2 5 C-2.66 5 -3.32 5 -4 5 C-4.33 4.01 -4.66 3.02 -5 2 C-2 0 -2 0 0 0 Z " fill="#FCFDF4" transform="translate(364,909)"/>
<path d="M0 0 C0 3.51716303 -0.82445585 4.37121748 -3 7 C-2.34 7.33 -1.68 7.66 -1 8 C-2.98 8.99 -2.98 8.99 -5 10 C-5.3125 7.25 -5.3125 7.25 -5 4 C-2.5 1.625 -2.5 1.625 0 0 Z " fill="#EFF1E4" transform="translate(199,881)"/>
<path d="M0 0 C0.66 0 1.32 0 2 0 C1.814375 0.5775 1.62875 1.155 1.4375 1.75 C0.80853466 3.98472306 0.80853466 3.98472306 1.6875 6 C1.790625 6.66 1.89375 7.32 2 8 C0.0625 10.25 0.0625 10.25 -2 12 C-1.814375 10.88625 -1.62875 9.7725 -1.4375 8.625 C-0.68319343 5.17431139 -0.68319343 5.17431139 -2 3 C-1.34 2.01 -0.68 1.02 0 0 Z " fill="#EEF0E5" transform="translate(267,820)"/>
<path d="M0 0 C0.33 0.99 0.66 1.98 1 3 C-0.32 4.32 -1.64 5.64 -3 7 C-2.67 5.35 -2.34 3.7 -2 2 C-1.34 2 -0.68 2 0 2 C0 1.34 0 0.68 0 0 Z M-4 7 C-3.67 7.99 -3.34 8.98 -3 10 C-3.66 10 -4.32 10 -5 10 C-4.67 9.01 -4.34 8.02 -4 7 Z M-7 9 C-6.34 9.66 -5.68 10.32 -5 11 C-5.66 11 -6.32 11 -7 11 C-7 10.34 -7 9.68 -7 9 Z " fill="#F7FCF3" transform="translate(591,1115)"/>
<path d="M0 0 C0.66 0 1.32 0 2 0 C2 0.66 2 1.32 2 2 C2.66 2 3.32 2 4 2 C3.67 2.66 3.34 3.32 3 4 C2.34 4 1.68 4 1 4 C-0.62514468 5.45833358 -0.62514468 5.45833358 -2 7 C-2.33 6.01 -2.66 5.02 -3 4 C-1.6875 1.8125 -1.6875 1.8125 0 0 Z " fill="#63866B" transform="translate(518,1108)"/>
<path d="M0 0 C1 3 1 3 0 6 C-0.66 6 -1.32 6 -2 6 C-2 6.66 -2 7.32 -2 8 C-2.66 7.67 -3.32 7.34 -4 7 C-4 4 -4 4 -2 1.8125 C-1.34 1.214375 -0.68 0.61625 0 0 Z " fill="#57765E" transform="translate(807,1095)"/>
<path d="M0 0 C2.64 0.66 5.28 1.32 8 2 C7.01 2.99 6.02 3.98 5 5 C4.01 4.01 3.02 3.02 2 2 C2 2.66 2 3.32 2 4 C1.01 3.67 0.02 3.34 -1 3 C-0.67 2.01 -0.34 1.02 0 0 Z " fill="#E3F1DE" transform="translate(452,1012)"/>
<path d="M0 0 C0.33 0.66 0.66 1.32 1 2 C3.52733235 2.65555119 3.52733235 2.65555119 6 3 C5.34 4.32 4.68 5.64 4 7 C2.02 5.68 0.04 4.36 -2 3 C-1.34 2.67 -0.68 2.34 0 2 C0 1.34 0 0.68 0 0 Z " fill="#65806D" transform="translate(1000,1002)"/>
<path d="M0 0 C1.65 0.99 3.3 1.98 5 3 C4.01 3.495 4.01 3.495 3 4 C2.34 3.67 1.68 3.34 1 3 C0.34 4.32 -0.32 5.64 -1 7 C-1.66 5.68 -2.32 4.36 -3 3 C-2.01 2.67 -1.02 2.34 0 2 C0 1.34 0 0.68 0 0 Z " fill="#E9F1E2" transform="translate(1491,993)"/>
<path d="M0 0 C5.57142857 5.14285714 5.57142857 5.14285714 6 9 C5.01 8.67 4.02 8.34 3 8 C2.3125 5.9375 2.3125 5.9375 2 4 C1.34 4 0.68 4 0 4 C-0.33 3.01 -0.66 2.02 -1 1 C-0.67 0.67 -0.34 0.34 0 0 Z " fill="#6D8570" transform="translate(1174,980)"/>
<path d="M0 0 C1.32 0.33 2.64 0.66 4 1 C3.0479279 2.00596297 2.08812654 3.00461563 1.125 4 C0.59132813 4.556875 0.05765625 5.11375 -0.4921875 5.6875 C-2 7 -2 7 -4 7 C-4.33 6.01 -4.66 5.02 -5 4 C-4.360625 3.71125 -3.72125 3.4225 -3.0625 3.125 C-0.84793921 2.17176549 -0.84793921 2.17176549 0 0 Z " fill="#E6F5E3" transform="translate(1547,980)"/>
<path d="M0 0 C0.33 0.99 0.66 1.98 1 3 C0.0409375 3.1546875 0.0409375 3.1546875 -0.9375 3.3125 C-1.618125 3.539375 -2.29875 3.76625 -3 4 C-3.33 4.99 -3.66 5.98 -4 7 C-4.99 7.33 -5.98 7.66 -7 8 C-7 7.01 -7 6.02 -7 5 C-5.46875 3.61328125 -5.46875 3.61328125 -3.5 2.3125 C-2.8503125 1.87550781 -2.200625 1.43851563 -1.53125 0.98828125 C-1.0259375 0.66214844 -0.520625 0.33601562 0 0 Z " fill="#68806C" transform="translate(745,974)"/>
<path d="M0 0 C0.33 0.66 0.66 1.32 1 2 C0.34 2 -0.32 2 -1 2 C-1 2.99 -1 3.98 -1 5 C-6.625 7 -6.625 7 -10 7 C-6.80331012 4.3513141 -3.60513403 2.06007659 0 0 Z " fill="#718C76" transform="translate(266,915)"/>
<path d="M0 0 C2.16874252 0.50603992 3.99967627 0.99983813 6 2 C6 2.66 6 3.32 6 4 C5.01 4 4.02 4 3 4 C3 3.34 3 2.68 3 2 C2.34 2 1.68 2 1 2 C1 3.65 1 5.3 1 7 C0.34 6.34 -0.32 5.68 -1 5 C-0.625 2.375 -0.625 2.375 0 0 Z " fill="#EFF1E4" transform="translate(273,465)"/>
<path d="M0 0 C0.66 0 1.32 0 2 0 C2.6875 1.8125 2.6875 1.8125 3 4 C1.6875 5.5625 1.6875 5.5625 0 7 C-0.66 7.99 -1.32 8.98 -2 10 C-1.85950482 8.52031676 -1.71245174 7.04125484 -1.5625 5.5625 C-1.48128906 4.73878906 -1.40007812 3.91507813 -1.31640625 3.06640625 C-1 1 -1 1 0 0 Z " fill="#EFF1E4" transform="translate(1193,1183)"/>
<path d="M0 0 C2.4375 1.1875 2.4375 1.1875 3.4375 3.1875 C1.1275 3.5175 -1.1825 3.8475 -3.5625 4.1875 C-3.8925 2.8675 -4.2225 1.5475 -4.5625 0.1875 C-2.5625 -0.8125 -2.5625 -0.8125 0 0 Z " fill="#E9F4E5" transform="translate(1692.5625,1123.8125)"/>
<path d="M0 0 C4.455 2.97 4.455 2.97 9 6 C8.34 6.66 7.68 7.32 7 8 C6.34 7.67 5.68 7.34 5 7 C5 6.34 5 5.68 5 5 C3.68 5 2.36 5 1 5 C0.67 3.35 0.34 1.7 0 0 Z " fill="#E7F5E3" transform="translate(725,1120)"/>
<path d="M0 0 C3.875 4.75 3.875 4.75 5 7 C3.35 7.33 1.7 7.66 0 8 C-0.98120464 4.94736336 -0.98120464 3.05263664 0 0 Z " fill="#E5F0E1" transform="translate(1682,1112)"/>
<path d="M0 0 C3.3 0.66 6.6 1.32 10 2 C10 2.33 10 2.66 10 3 C8.9275 3.144375 7.855 3.28875 6.75 3.4375 C4.08337051 3.83749442 1.58600271 4.27591924 -1 5 C-0.67 3.35 -0.34 1.7 0 0 Z " fill="#708D75" transform="translate(862,1112)"/>
<path d="M0 0 C1.67542976 0.28604898 3.34385343 0.61781233 5 1 C4.01 1.495 4.01 1.495 3 2 C3.33 3.32 3.66 4.64 4 6 C3.01 6 2.02 6 1 6 C0.34 4.35 -0.32 2.7 -1 1 C-0.67 0.67 -0.34 0.34 0 0 Z " fill="#EBF4E4" transform="translate(1822,1104)"/>
<path d="M0 0 C0.66 0.33 1.32 0.66 2 1 C1.2884375 2.175625 1.2884375 2.175625 0.5625 3.375 C-0.33898023 4.88948678 -1.21179485 6.4235897 -2 8 C-2.99 7.34 -3.98 6.68 -5 6 C-3.63016497 2.83884224 -3.0109362 2.0072908 0 0 Z " fill="#E2EFDF" transform="translate(1281,1056)"/>
<path d="M0 0 C0.99 0.33 1.98 0.66 3 1 C2.67 2.98 2.34 4.96 2 7 C1.01 7 0.02 7 -1 7 C-0.67 4.69 -0.34 2.38 0 0 Z " fill="#527B5D" transform="translate(731,999)"/>
<path d="M0 0 C-1.24546405 3.73639216 -2.63404953 4.18756513 -6 6 C-6.33 4.68 -6.66 3.36 -7 2 C-4 0 -4 0 0 0 Z " fill="#68866D" transform="translate(1560,993)"/>
<path d="M0 0 C0.33 0.66 0.66 1.32 1 2 C1.66 2 2.32 2 3 2 C3 1.34 3 0.68 3 0 C3.66 0.33 4.32 0.66 5 1 C5 2.32 5 3.64 5 5 C3.68 5.33 2.36 5.66 1 6 C-0.0625 4.125 -0.0625 4.125 -1 2 C-0.67 1.34 -0.34 0.68 0 0 Z " fill="#527A5E" transform="translate(1496,992)"/>
<path d="M0 0 C0.66 0 1.32 0 2 0 C2 0.66 2 1.32 2 2 C2.99 2 3.98 2 5 2 C6 5 6 5 5.0625 7.1875 C4.5365625 8.0846875 4.5365625 8.0846875 4 9 C0 2.25 0 2.25 0 0 Z " fill="#E9F4E6" transform="translate(847,985)"/>
<path d="M0 0 C0.66 0.33 1.32 0.66 2 1 C2 1.66 2 2.32 2 3 C-0.31 3.66 -2.62 4.32 -5 5 C-5.66 4.34 -6.32 3.68 -7 3 C-4.69631264 1.93347808 -2.35981813 0.93578995 0 0 Z " fill="#66836C" transform="translate(1737,984)"/>
<path d="M0 0 C1.98 1.65 3.96 3.3 6 5 C5.01 5.99 4.02 6.98 3 8 C1.0549 5.08235 0.54723683 3.37462715 0 0 Z " fill="#69856C" transform="translate(1343,976)"/>
<path d="M0 0 C2.125 0.375 2.125 0.375 4 1 C2.625 3.5 2.625 3.5 1 6 C0.34 6 -0.32 6 -1 6 C-1.625 4.125 -1.625 4.125 -2 2 C-1.34 1.34 -0.68 0.68 0 0 Z " fill="#65826C" transform="translate(1037,967)"/>
<path d="M0 0 C2.97 0 5.94 0 9 0 C8.01 1.485 8.01 1.485 7 3 C4.69 2.67 2.38 2.34 0 2 C0 1.34 0 0.68 0 0 Z " fill="#68876F" transform="translate(925,964)"/>
<path d="M0 0 C-0.66 1.32 -1.32 2.64 -2 4 C-4.31 3.34 -6.62 2.68 -9 2 C-5.945634 -1.054366 -3.9532319 -1.22686507 0 0 Z " fill="#6D8871" transform="translate(986,963)"/>
<path d="M0 0 C0.33 0.99 0.66 1.98 1 3 C-5.75 3.125 -5.75 3.125 -8 2 C-8 1.34 -8 0.68 -8 0 C-4.71303767 -0.79953138 -3.28976808 -1.09658936 0 0 Z " fill="#EEF0E3" transform="translate(368,853)"/>
<path d="M0 0 C0.99 0.33 1.98 0.66 3 1 C3 1.66 3 2.32 3 3 C3.66 3.33 4.32 3.66 5 4 C3.35 3.67 1.7 3.34 0 3 C0 3.99 0 4.98 0 6 C-0.66 6 -1.32 6 -2 6 C-1.125 1.125 -1.125 1.125 0 0 Z " fill="#EEF0E3" transform="translate(107,1914)"/>
<path d="M0 0 C0.66 0 1.32 0 2 0 C2 0.66 2 1.32 2 2 C1.01 1.67 0.02 1.34 -1 1 C-0.67 0.67 -0.34 0.34 0 0 Z M-5 2 C-2.9375 2.4375 -2.9375 2.4375 -1 3 C-1.33 3.99 -1.66 4.98 -2 6 C-2.99 6 -3.98 6 -5 6 C-5.33 5.01 -5.66 4.02 -6 3 C-5.67 2.67 -5.34 2.34 -5 2 Z " fill="#EEF0E3" transform="translate(938,1781)"/>
<path d="M0 0 C3.24208567 0.35049575 4.61527704 0.56221181 6.8125 3.0625 C7.204375 3.701875 7.59625 4.34125 8 5 C5.03 4.505 5.03 4.505 2 4 C2 3.01 2 2.02 2 1 C1.34 0.67 0.68 0.34 0 0 Z " fill="#EAF3E4" transform="translate(1777,1122)"/>
<path d="M0 0 C2 2 2 2 2 5 C0.35 5.66 -1.3 6.32 -3 7 C-3 3.48283697 -2.17554415 2.62878252 0 0 Z " fill="#D6E9D6" transform="translate(1317,1109)"/>
<path d="M0 0 C0.33 0 0.66 0 1 0 C2.71084699 5.51272919 3.4606443 8.53190155 1 14 C0.67 14 0.34 14 0 14 C0 9.38 0 4.76 0 0 Z " fill="#728A75" transform="translate(422,1082)"/>
<path d="M0 0 C0.33 1.32 0.66 2.64 1 4 C-1 5 -3 6 -5 7 C-5.33 6.01 -5.66 5.02 -6 4 C-4.02 2.68 -2.04 1.36 0 0 Z " fill="#698771" transform="translate(446,1048)"/>
<path d="M0 0 C2.64 0 5.28 0 8 0 C8.33 0.99 8.66 1.98 9 3 C6 4 6 4 2.8125 2.5625 C1.884375 2.046875 0.95625 1.53125 0 1 C0 0.67 0 0.34 0 0 Z " fill="#67836C" transform="translate(264,1026)"/>
<path d="M0 0 C2.3431213 0.25561323 4.67843403 0.59270772 7 1 C7.33 1.66 7.66 2.32 8 3 C7.01 3.99 6.02 4.98 5 6 C5 5.34 5 4.68 5 4 C4.360625 3.71125 3.72125 3.4225 3.0625 3.125 C1 2 1 2 0 0 Z " fill="#67886D" transform="translate(363,1013)"/>
<path d="M0 0 C1.32 0 2.64 0 4 0 C3.67 0.66 3.34 1.32 3 2 C0.125 2.8125 0.125 2.8125 -3 3 C-4.875 1.5625 -4.875 1.5625 -6 0 C-3 -1 -3 -1 0 0 Z " fill="#F9FDF2" transform="translate(995,1005)"/>
<path d="M0 0 C2.35953094 2.35953094 2.49141413 3.77895617 3 7 C1.0625 6.6875 1.0625 6.6875 -1 6 C-1.33 5.01 -1.66 4.02 -2 3 C-1.34 2.01 -0.68 1.02 0 0 Z " fill="#68816B" transform="translate(1355,992)"/>
<path d="M0 0 C2.99324263 1.0975223 3.84610901 1.67682892 5.25 4.625 C5.4975 5.40875 5.745 6.1925 6 7 C5.01 7.495 5.01 7.495 4 8 C0 3.375 0 3.375 0 0 Z " fill="#6A866F" transform="translate(552,984)"/>
<path d="M0 0 C0.66 0.33 1.32 0.66 2 1 C0.63016497 4.16115776 0.0109362 4.9927092 -3 7 C-3 3 -3 3 -1.5 1.25 C-1.005 0.8375 -0.51 0.425 0 0 Z " fill="#56745B" transform="translate(737,981)"/>
<path d="M0 0 C0.66 1.32 1.32 2.64 2 4 C1.01 4.66 0.02 5.32 -1 6 C-2.32 5.34 -3.64 4.68 -5 4 C-5 3.34 -5 2.68 -5 2 C-3.35 1.34 -1.7 0.68 0 0 Z " fill="#FBFDF6" transform="translate(304,981)"/>
<path d="M0 0 C0.556875 0.391875 1.11375 0.78375 1.6875 1.1875 C1.048125 1.31125 0.40875 1.435 -0.25 1.5625 C-0.930625 1.76875 -1.61125 1.975 -2.3125 2.1875 C-2.6425 2.8475 -2.9725 3.5075 -3.3125 4.1875 C-4.9625 4.1875 -6.6125 4.1875 -8.3125 4.1875 C-6.5910452 0.7445904 -3.76755157 -1.32373434 0 0 Z " fill="#FBFDEF" transform="translate(1409.3125,960.8125)"/>
<path d="M0 0 C0.99 0.66 1.98 1.32 3 2 C2.01 3.485 2.01 3.485 1 5 C-0.65 4.67 -2.3 4.34 -4 4 C-2.68 2.68 -1.36 1.36 0 0 Z " fill="#E6F0E1" transform="translate(1618,962)"/>
<path d="M0 0 C0 0.99 0 1.98 0 3 C-1.98 3.99 -1.98 3.99 -4 5 C-4 4.34 -4 3.68 -4 3 C-5.32 2.67 -6.64 2.34 -8 2 C-4.91190305 0.23537317 -3.76687864 0 0 0 Z " fill="#FAFBF2" transform="translate(1336,961)"/>
<path d="M0 0 C0.33 1.65 0.66 3.3 1 5 C-0.98 4.34 -2.96 3.68 -5 3 C-5 2.34 -5 1.68 -5 1 C-3 0 -3 0 0 0 Z " fill="#EAF1E8" transform="translate(1324,961)"/>
<path d="M0 0 C1.32 0.33 2.64 0.66 4 1 C4.33 2.32 4.66 3.64 5 5 C4.01 5.33 3.02 5.66 2 6 C0 3 0 3 0 0 Z " fill="#EEF0E3" transform="translate(72,1983)"/>
<path d="M0 0 C0.66 0 1.32 0 2 0 C2 0.99 2 1.98 2 3 C1.34 3 0.68 3 0 3 C-0.33 4.32 -0.66 5.64 -1 7 C-1.66 7 -2.32 7 -3 7 C-2.25 2.25 -2.25 2.25 0 0 Z " fill="#EFF1E4" transform="translate(1047,1766)"/>
<path d="M0 0 C0.99 0 1.98 0 3 0 C2.34 1.32 1.68 2.64 1 4 C0.34 4 -0.32 4 -1 4 C-1.33 4.66 -1.66 5.32 -2 6 C-2 5.34 -2 4.68 -2 4 C-2.99 3.67 -3.98 3.34 -5 3 C-4.34 2.34 -3.68 1.68 -3 1 C-2.01 1.66 -1.02 2.32 0 3 C0 2.01 0 1.02 0 0 Z " fill="#EFF1E4" transform="translate(178,1196)"/>
<path d="M0 0 C1.32 0.33 2.64 0.66 4 1 C2.35 2.98 0.7 4.96 -1 7 C-2 4 -2 4 -1.0625 1.8125 C-0.5365625 0.9153125 -0.5365625 0.9153125 0 0 Z " fill="#6A876E" transform="translate(378,1105)"/>
<path d="M0 0 C1.42944945 2.35438733 2.08661261 3.48032433 1.625 6.25 C1.41875 6.8275 1.2125 7.405 1 8 C0.01 7.67 -0.98 7.34 -2 7 C-2.125 4.625 -2.125 4.625 -2 2 C-1.34 1.34 -0.68 0.68 0 0 Z " fill="#E2EDDC" transform="translate(230,1100)"/>
<path d="M0 0 C2.5 2.3125 2.5 2.3125 5 5 C5 5.99 5 6.98 5 8 C3 8 3 8 1.375 6.8125 C-0.42149467 4.44439338 -0.23521845 2.90102749 0 0 Z " fill="#6C8771" transform="translate(472,1097)"/>
<path d="M0 0 C-4.455 1.485 -4.455 1.485 -9 3 C-9.66 2.34 -10.32 1.68 -11 1 C-4.5 -1.125 -4.5 -1.125 0 0 Z " fill="#68836B" transform="translate(1754,1050)"/>
<path d="M0 0 C2.97 0.495 2.97 0.495 6 1 C6.33 1.99 6.66 2.98 7 4 C5.35 4.33 3.7 4.66 2 5 C2 3.68 2 2.36 2 1 C1.34 0.67 0.68 0.34 0 0 Z " fill="#62886B" transform="translate(809,1043)"/>
<path d="M0 0 C0.66 0.33 1.32 0.66 2 1 C1.1875 3.9375 1.1875 3.9375 0 7 C-0.99 7.33 -1.98 7.66 -3 8 C-3.33 6.35 -3.66 4.7 -4 3 C-2.68 2.01 -1.36 1.02 0 0 Z " fill="#F9FBF2" transform="translate(367,968)"/>
<path d="M0 0 C1.98 0 3.96 0 6 0 C6.33 1.32 6.66 2.64 7 4 C4 4 4 4 1.8125 2 C1.214375 1.34 0.61625 0.68 0 0 Z " fill="#E9F2E1" transform="translate(1527,968)"/>
<path d="M0 0 C2.64 0 5.28 0 8 0 C8 0.99 8 1.98 8 3 C5.36 2.67 2.72 2.34 0 2 C0 1.34 0 0.68 0 0 Z " fill="#5D7461" transform="translate(1072,964)"/>
<path d="M0 0 C0.99 0.33 1.98 0.66 3 1 C2.34 2.65 1.68 4.3 1 6 C0.01 6 -0.98 6 -2 6 C-1.34 4.02 -0.68 2.04 0 0 Z " fill="#E4F0E0" transform="translate(721,912)"/>
<path d="M0 0 C0.99 0.33 1.98 0.66 3 1 C1 4 1 4 -1 4.8125 C-1.66 4.874375 -2.32 4.93625 -3 5 C-3.66 4.34 -4.32 3.68 -5 3 C-2.6875 1.4375 -2.6875 1.4375 0 0 Z " fill="#6B846E" transform="translate(648,905)"/>
<path d="M0 0 C0.33 0.66 0.66 1.32 1 2 C1.66 2 2.32 2 3 2 C2.67 2.99 2.34 3.98 2 5 C1.34 4.67 0.68 4.34 0 4 C0 2.68 0 1.36 0 0 Z M-4 2 C-3.01 2 -2.02 2 -1 2 C-0.67 2.99 -0.34 3.98 0 5 C-0.99 5.33 -1.98 5.66 -3 6 C-3.33 4.68 -3.66 3.36 -4 2 Z " fill="#FCFBF4" transform="translate(1190,1129)"/>
<path d="M0 0 C0.99 0.33 1.98 0.66 3 1 C2.67 2.32 2.34 3.64 2 5 C0.35 4.67 -1.3 4.34 -3 4 C-3.33 4.66 -3.66 5.32 -4 6 C-4 5.01 -4 4.02 -4 3 C-2.68 2.67 -1.36 2.34 0 2 C0 1.34 0 0.68 0 0 Z " fill="#FAFDF2" transform="translate(1844,1118)"/>
<path d="M0 0 C1.875 0.25 1.875 0.25 4 1 C5.25 3.0625 5.25 3.0625 6 5 C4.125 4.75 4.125 4.75 2 4 C0.75 1.9375 0.75 1.9375 0 0 Z M6 2 C8 3 8 3 8 3 Z " fill="#64826B" transform="translate(1778,1118)"/>
<path d="M0 0 C1.98 0.495 1.98 0.495 4 1 C4.33 2.32 4.66 3.64 5 5 C3.02 4.34 1.04 3.68 -1 3 C-0.67 2.01 -0.34 1.02 0 0 Z " fill="#6D8A73" transform="translate(252,1119)"/>
<path d="M0 0 C3.465 1.485 3.465 1.485 7 3 C7 3.66 7 4.32 7 5 C5.68 5 4.36 5 3 5 C3 4.34 3 3.68 3 3 C1.68 2.67 0.36 2.34 -1 2 C-0.67 1.34 -0.34 0.68 0 0 Z " fill="#65866C" transform="translate(274,1105)"/>
<path d="M0 0 C0.33 0.66 0.66 1.32 1 2 C3.01669827 3.13350534 3.01669827 3.13350534 5 4 C5 4.66 5 5.32 5 6 C2.97954558 5.39816251 0.97888961 4.72693904 -1 4 C-1.33 3.34 -1.66 2.68 -2 2 C-1.34 2 -0.68 2 0 2 C0 1.34 0 0.68 0 0 Z " fill="#E1F0DF" transform="translate(1733,1100)"/>
<path d="M0 0 C0.33 0.66 0.66 1.32 1 2 C0.34 2 -0.32 2 -1 2 C-1.33 2.99 -1.66 3.98 -2 5 C-2.99 5.66 -3.98 6.32 -5 7 C-5.99 6.67 -6.98 6.34 -8 6 C-5.36 4.02 -2.72 2.04 0 0 Z " fill="#6F8973" transform="translate(1240,1050)"/>
<path d="M0 0 C0.66 0.33 1.32 0.66 2 1 C1.01 2.485 1.01 2.485 0 4 C0.33 4.66 0.66 5.32 1 6 C-0.32 5.67 -1.64 5.34 -3 5 C-3 3.68 -3 2.36 -3 1 C-2.01 0.67 -1.02 0.34 0 0 Z " fill="#E3EFDE" transform="translate(790,1050)"/>
<path d="M0 0 C0 0.66 0 1.32 0 2 C-2.875 2.625 -2.875 2.625 -6 3 C-6.66 2.34 -7.32 1.68 -8 1 C-2.25 -1.125 -2.25 -1.125 0 0 Z " fill="#557A60" transform="translate(789,1049)"/>
<path d="M0 0 C2.0625 2.3125 2.0625 2.3125 4 5 C3.67 5.99 3.34 6.98 3 8 C0.52557871 5.84832931 -0.56238367 4.28212246 -1 1 C-0.67 0.67 -0.34 0.34 0 0 Z " fill="#5D7B63" transform="translate(1135,996)"/>
<path d="M0 0 C2.475 0.495 2.475 0.495 5 1 C4.67 2.65 4.34 4.3 4 6 C3.34 6 2.68 6 2 6 C1.34 4.02 0.68 2.04 0 0 Z " fill="#E4F0DF" transform="translate(1812,990)"/>
<path d="M0 0 C0.99 0.66 1.98 1.32 3 2 C-0.31371 4.20914 -1.3446021 4.22481553 -5.1875 4.125 C-6.08855469 4.10695313 -6.98960938 4.08890625 -7.91796875 4.0703125 C-8.60503906 4.04710937 -9.29210938 4.02390625 -10 4 C-10 3.67 -10 3.34 -10 3 C-8.72125 2.87625 -7.4425 2.7525 -6.125 2.625 C-2.65209064 2.30957601 -2.65209064 2.30957601 0 0 Z " fill="#7B9880" transform="translate(1487,987)"/>
<path d="M0 0 C2.475 0.99 2.475 0.99 5 2 C4.01 2.495 4.01 2.495 3 3 C3 3.66 3 4.32 3 5 C2.34 5 1.68 5 1 5 C0.34 3.68 -0.32 2.36 -1 1 C-0.67 0.67 -0.34 0.34 0 0 Z " fill="#EDF1E0" transform="translate(498,988)"/>
<path d="M0 0 C3 1 3 1 4.1875 3.0625 C4.455625 3.701875 4.72375 4.34125 5 5 C4.01 6.485 4.01 6.485 3 8 C2.67 6.35 2.34 4.7 2 3 C1.34 3 0.68 3 0 3 C0 2.01 0 1.02 0 0 Z " fill="#67866A" transform="translate(1536,978)"/>
<path d="M0 0 C0.99 0.33 1.98 0.66 3 1 C1.35 2.65 -0.3 4.3 -2 6 C-2 2 -2 2 0 0 Z " fill="#E7F7E7" transform="translate(1088,979)"/>
<path d="M0 0 C1.32 0.66 2.64 1.32 4 2 C-1.2734375 5.22265625 -1.2734375 5.22265625 -3 6 C-3.66 5.67 -4.32 5.34 -5 5 C-3.35 3.35 -1.7 1.7 0 0 Z " fill="#718B76" transform="translate(448,978)"/>
<path d="M0 0 C0.99 0 1.98 0 3 0 C3.125 2.875 3.125 2.875 3 6 C2.34 6.66 1.68 7.32 1 8 C0.67 5.36 0.34 2.72 0 0 Z " fill="#E2F1DF" transform="translate(1451,972)"/>
<path d="M0 0 C2.26274788 0.35355436 3.95088852 0.97544426 6 2 C5.34 3.32 4.68 4.64 4 6 C3.67 4.68 3.34 3.36 3 2 C1.35 2 -0.3 2 -2 2 C-1.34 1.34 -0.68 0.68 0 0 Z " fill="#59785B" transform="translate(1525,969)"/>
<path d="M0 0 C4.62 0 9.24 0 14 0 C14 0.33 14 0.66 14 1 C12.22932584 1.16834933 10.45845388 1.33461909 8.6875 1.5 C7.70136719 1.5928125 6.71523437 1.685625 5.69921875 1.78125 C3 2 3 2 0 2 C0 1.34 0 0.68 0 0 Z " fill="#5F7663" transform="translate(1034,966)"/>
<path d="M0 0 C3.96 0 7.92 0 12 0 C12 0.33 12 0.66 12 1 C11.37351562 1.04898438 10.74703125 1.09796875 10.1015625 1.1484375 C9.28429687 1.22320313 8.46703125 1.29796875 7.625 1.375 C6.81289063 1.44460938 6.00078125 1.51421875 5.1640625 1.5859375 C2.79665809 1.82892588 2.79665809 1.82892588 1 4 C0.67 2.68 0.34 1.36 0 0 Z " fill="#57755B" transform="translate(897,966)"/>
<path d="M0 0 C2.97 0 5.94 0 9 0 C7.515 2.475 7.515 2.475 6 5 C5.34 4.67 4.68 4.34 4 4 C4.33 3.34 4.66 2.68 5 2 C3.35 1.67 1.7 1.34 0 1 C0 0.67 0 0.34 0 0 Z " fill="#6C8B72" transform="translate(1583,962)"/>
<path d="M0 0 C3.3 0 6.6 0 10 0 C7 3 7 3 4.4375 3.375 C3.633125 3.25125 2.82875 3.1275 2 3 C1.34 2.01 0.68 1.02 0 0 Z " fill="#54765A" transform="translate(1294,962)"/>
<path d="M0 0 C1.15941038 3.47823115 0.70820884 5.45895578 0 9 C-0.99 7.68 -1.98 6.36 -3 5 C-1.125 1.125 -1.125 1.125 0 0 Z " fill="#EEEFE5" transform="translate(64,786)"/>
<path d="M0 0 C1.485 0.99 1.485 0.99 3 2 C2.67 2.66 2.34 3.32 2 4 C2.66 4.33 3.32 4.66 4 5 C3.67 5.99 3.34 6.98 3 8 C0.9375 6.25 0.9375 6.25 -1 4 C-0.75 1.75 -0.75 1.75 0 0 Z " fill="#EFF0E4" transform="translate(649,348)"/>
<path d="M0 0 C1.32 0.33 2.64 0.66 4 1 C3.67 1.99 3.34 2.98 3 4 C3.66 4 4.32 4 5 4 C5 4.66 5 5.32 5 6 C3.68 6 2.36 6 1 6 C0.67 4.02 0.34 2.04 0 0 Z " fill="#EFF1E4" transform="translate(707,213)"/>
<path d="M0 0 C2.1875 0.3125 2.1875 0.3125 4 1 C4 1.66 4 2.32 4 3 C2.68 3 1.36 3 0 3 C0 3.66 0 4.32 0 5 C-0.99 5 -1.98 5 -3 5 C-3 3 -3 3 -1.75 1.3125 C-1.1725 0.879375 -0.595 0.44625 0 0 Z " fill="#EEF0E3" transform="translate(700,1698)"/>
<path d="M0 0 C2.97 0.495 2.97 0.495 6 1 C5.67 1.66 5.34 2.32 5 3 C3.02 3 1.04 3 -1 3 C-0.67 2.01 -0.34 1.02 0 0 Z " fill="#57795F" transform="translate(1707,1129)"/>
<path d="M0 0 C4 4.625 4 4.625 4 8 C3.34 8 2.68 8 2 8 C-0.1519437 4.77208445 -0.20086443 3.71599191 0 0 Z " fill="#68846D" transform="translate(567,1106)"/>
<path d="M0 0 C0.66 0 1.32 0 2 0 C2.66 1.65 3.32 3.3 4 5 C2.35 5.66 0.7 6.32 -1 7 C-0.67 4.69 -0.34 2.38 0 0 Z " fill="#65866C" transform="translate(1362,1105)"/>
<path d="M0 0 C2.9719385 1.12451727 5.33440687 2.22293791 8 4 C8 4.66 8 5.32 8 6 C6.0625 5.625 6.0625 5.625 4 5 C3.67 4.34 3.34 3.68 3 3 C2.01 2.67 1.02 2.34 0 2 C0 1.34 0 0.68 0 0 Z " fill="#6B8D73" transform="translate(1275,1104)"/>
<path d="M0 0 C-1.75 3.875 -1.75 3.875 -4 5 C-4.66 4.67 -5.32 4.34 -6 4 C-5.67 3.01 -5.34 2.02 -5 1 C-2 0 -2 0 0 0 Z " fill="#E4EFDF" transform="translate(806,1095)"/>
<path d="M0 0 C2.38564077 0.57584432 4.66682784 1.22227595 7 2 C6.67 2.99 6.34 3.98 6 5 C3.69 4.01 1.38 3.02 -1 2 C-0.67 1.34 -0.34 0.68 0 0 Z " fill="#6B866F" transform="translate(329,1050)"/>
<path d="M0 0 C-2.59482129 2.59482129 -4.39883625 2.69990302 -8 3 C-8.66 2.34 -9.32 1.68 -10 1 C-3.375 -1.125 -3.375 -1.125 0 0 Z " fill="#69846F" transform="translate(768,1038)"/>
<path d="M0 0 C1.32 0 2.64 0 4 0 C4 1.32 4 2.64 4 4 C2.02 3.34 0.04 2.68 -2 2 C-1.34 1.34 -0.68 0.68 0 0 Z " fill="#6C8770" transform="translate(458,1011)"/>
<path d="M0 0 C0.99 0 1.98 0 3 0 C3 1.32 3 2.64 3 4 C1.35 4 -0.3 4 -2 4 C-2.33 3.34 -2.66 2.68 -3 2 C-2.01 2 -1.02 2 0 2 C0 1.34 0 0.68 0 0 Z " fill="#5B735C" transform="translate(1712,1010)"/>
<path d="M0 0 C0.99 0.33 1.98 0.66 3 1 C2.67 2.98 2.34 4.96 2 7 C1.34 7 0.68 7 0 7 C-0.38133299 5.0085944 -0.71325582 3.00720923 -1 1 C-0.67 0.67 -0.34 0.34 0 0 Z " fill="#557457" transform="translate(1256,1007)"/>
<path d="M0 0 C1.32 0 2.64 0 4 0 C4 0.66 4 1.32 4 2 C4.66 2 5.32 2 6 2 C5.67 3.32 5.34 4.64 5 6 C3.35 4.02 1.7 2.04 0 0 Z " fill="#6A876F" transform="translate(244,1010)"/>
<path d="M0 0 C2.67927341 4.01891012 2.15601248 6.24161923 2 11 C1.67 11 1.34 11 1 11 C-1.125 3.375 -1.125 3.375 0 0 Z " fill="#D3E1D3" transform="translate(809,1003)"/>
<path d="M0 0 C0.99 0.66 1.98 1.32 3 2 C1 4 -1 6 -3 8 C-2.45276317 4.62537285 -1.9451 2.91765 0 0 Z " fill="#DBE9D8" transform="translate(1091,1000)"/>
<path d="M0 0 C1.32 0.33 2.64 0.66 4 1 C4 1.66 4 2.32 4 3 C2.125 4.0625 2.125 4.0625 0 5 C-0.66 4.67 -1.32 4.34 -2 4 C-1.34 2.68 -0.68 1.36 0 0 Z " fill="#FBFBF2" transform="translate(360,1000)"/>
<path d="M0 0 C0 0.99 0 1.98 0 3 C-1.98 3.99 -1.98 3.99 -4 5 C-4.66 3.68 -5.32 2.36 -6 1 C-3 0 -3 0 0 0 Z " fill="#6B8972" transform="translate(1731,965)"/>
<path d="M0 0 C2.875 -0.125 2.875 -0.125 6 0 C6.66 0.66 7.32 1.32 8 2 C7.67 2.99 7.34 3.98 7 5 C6.5875 4.505 6.175 4.01 5.75 3.5 C3.87797662 1.56613908 3.87797662 1.56613908 0 2 C0 1.34 0 0.68 0 0 Z " fill="#59765F" transform="translate(1602,963)"/>
<path d="M0 0 C1.98 0 3.96 0 6 0 C6.33 0.99 6.66 1.98 7 3 C4.69 2.67 2.38 2.34 0 2 C0 1.34 0 0.68 0 0 Z " fill="#597760" transform="translate(1507,963)"/>
<path d="M0 0 C0.99 0.33 1.98 0.66 3 1 C2.43628586 4.26954202 1.50037734 5.82575883 -1 8 C-0.67 5.36 -0.34 2.72 0 0 Z " fill="#7B947F" transform="translate(232,956)"/>
<path d="M0 0 C1.98 0 3.96 0 6 0 C6 0.99 6 1.98 6 3 C4.35 3.66 2.7 4.32 1 5 C0.67 3.35 0.34 1.7 0 0 Z " fill="#EEF0E3" transform="translate(673,949)"/>
<path d="M0 0 C0.66 0 1.32 0 2 0 C2 0.66 2 1.32 2 2 C3.32 1.34 4.64 0.68 6 0 C5.34 1.98 4.68 3.96 4 6 C2.62437146 4.71034824 1.29233607 3.37310707 0 2 C0 1.34 0 0.68 0 0 Z " fill="#EFEFE5" transform="translate(823,98)"/>
<path d="M0 0 C0.66 0 1.32 0 2 0 C0.87548273 2.9719385 -0.22293791 5.33440687 -2 8 C-2.66 8 -3.32 8 -4 8 C-2.66666667 5.33333333 -1.33333333 2.66666667 0 0 Z " fill="#FAFCF1" transform="translate(741,40)"/>
<path d="M0 0 C0.99 0 1.98 0 3 0 C1.50902342 3.7952131 -0.75700849 5.61042731 -4 8 C-2.66666667 5.33333333 -1.33333333 2.66666667 0 0 Z " fill="#FBFCF0" transform="translate(908,21)"/>
</svg>
