<?xml version="1.0" encoding="UTF-8"?>
<svg version="1.1" xmlns="http://www.w3.org/2000/svg" width="96" height="96">
<path d="M0 0 C0.99 0 1.98 0 3 0 C3.268125 0.639375 3.53625 1.27875 3.8125 1.9375 C4.88667752 4.33131686 4.88667752 4.33131686 8 5 C7.67 6.32 7.34 7.64 7 9 C6.01 9 5.02 9 4 9 C4 9.66 4 10.32 4 11 C5.093125 10.938125 6.18625 10.87625 7.3125 10.8125 C11 11 11 11 12.9375 12.5 C13.288125 12.995 13.63875 13.49 14 14 C14.5775 13.71125 15.155 13.4225 15.75 13.125 C16.4925 12.75375 17.235 12.3825 18 12 C18.60505371 11.65227539 19.21010742 11.30455078 19.83349609 10.94628906 C22.35230839 9.84611817 24.17274646 9.74168378 26.9140625 9.734375 C28.30238281 9.73050781 28.30238281 9.73050781 29.71875 9.7265625 C30.6778125 9.73429688 31.636875 9.74203125 32.625 9.75 C33.59179688 9.74226562 34.55859375 9.73453125 35.5546875 9.7265625 C36.47765625 9.72914062 37.400625 9.73171875 38.3515625 9.734375 C39.19541504 9.73663086 40.03926758 9.73888672 40.90869141 9.74121094 C43 10 43 10 45 12 C45 12.99 45 13.98 45 15 C45.61488281 15.03738281 46.22976562 15.07476562 46.86328125 15.11328125 C47.67152344 15.17902344 48.47976562 15.24476562 49.3125 15.3125 C50.11300781 15.37050781 50.91351563 15.42851562 51.73828125 15.48828125 C54.52198153 16.11809945 55.29810987 16.71894519 57 19 C57.38095093 21.77026367 57.38095093 21.77026367 57.38818359 25.16796875 C57.39764008 26.43938721 57.40709656 27.71080566 57.4168396 29.02075195 C57.41146991 30.40967113 57.40531696 31.79858748 57.3984375 33.1875 C57.40045839 34.61092274 57.40336995 36.03434447 57.40713501 37.45776367 C57.41155771 40.44036724 57.40512935 43.42270121 57.39111328 46.40527344 C57.37402103 50.22885091 57.38386255 54.05179666 57.40183067 57.87535095 C57.41267019 60.81446087 57.40922149 63.75342097 57.4014473 66.6925354 C57.39944573 68.10234654 57.40190306 69.51217128 57.40888596 70.92196655 C57.41650223 72.89198548 57.40283579 74.86205209 57.38818359 76.83203125 C57.38579681 77.95327393 57.38341003 79.0745166 57.38095093 80.22973633 C57 83 57 83 55.94155884 84.86123657 C52.94299319 86.61995582 49.92549237 86.41692501 46.546875 86.38818359 C45.79047729 86.39344055 45.03407959 86.39869751 44.25476074 86.40411377 C41.75296414 86.41732414 39.25180314 86.40857232 36.75 86.3984375 C35.01269407 86.40045794 33.27538896 86.40336914 31.53808594 86.40713501 C27.89640226 86.41155976 24.25493928 86.40512254 20.61328125 86.39111328 C15.94226516 86.37402122 11.27176616 86.38386161 6.60076904 86.40183067 C3.01314387 86.41266449 -0.57435845 86.40922404 -4.1619873 86.4014473 C-5.88440003 86.39944417 -7.60682387 86.4019085 -9.32922363 86.40888596 C-11.73540855 86.41649395 -14.1407528 86.40490612 -16.546875 86.38818359 C-17.26073364 86.39425629 -17.97459229 86.40032898 -18.71008301 86.40658569 C-21.58646955 86.36949837 -23.54094877 86.31629907 -25.94750977 84.65811157 C-27.58433019 82.07943597 -27.28447148 79.81861592 -27.1875 76.8125 C-27.14689453 75.18248047 -27.14689453 75.18248047 -27.10546875 73.51953125 C-27.05326172 72.27236328 -27.05326172 72.27236328 -27 71 C-25.515 70.505 -25.515 70.505 -24 70 C-24 66.7 -24 63.4 -24 60 C-24.99 59.67 -25.98 59.34 -27 59 C-27.07410727 53.35834639 -27.12858167 47.71697553 -27.16479492 42.07495117 C-27.1798898 40.15530462 -27.20036773 38.2356926 -27.22631836 36.31616211 C-27.26267109 33.55834436 -27.27971912 30.8009822 -27.29296875 28.04296875 C-27.30845261 27.18350143 -27.32393646 26.32403412 -27.33988953 25.43852234 C-27.34011612 24.63791885 -27.34034271 23.83731537 -27.34057617 23.01245117 C-27.34723801 22.3085173 -27.35389984 21.60458344 -27.36076355 20.87931824 C-26.88808269 18.41699145 -25.94255874 17.53623751 -24 16 C-21.73828125 15.48828125 -21.73828125 15.48828125 -19.3125 15.3125 C-18.10013672 15.21388672 -18.10013672 15.21388672 -16.86328125 15.11328125 C-16.24839844 15.07589844 -15.63351563 15.03851563 -15 15 C-14.7834375 14.0409375 -14.7834375 14.0409375 -14.5625 13.0625 C-14 11 -14 11 -13 10 C-11.0390625 9.83203125 -11.0390625 9.83203125 -8.625 9.8125 C-7.83351563 9.79832031 -7.04203125 9.78414062 -6.2265625 9.76953125 C-4 10 -4 10 -1 12 C-1.66 11.401875 -2.32 10.80375 -3 10.1875 C-5 8 -5 8 -5 5 C-4.01 4.67 -3.02 4.34 -2 4 C-0.79117904 1.99983534 -0.79117904 1.99983534 0 0 Z " fill="#11CFE3" transform="translate(33,0)"/>
<path d="M0 0 C2.43375 0.020625 4.8675 0.04125 7.375 0.0625 C7.705 7.6525 8.035 15.2425 8.375 23.0625 C9.695 23.0625 11.015 23.0625 12.375 23.0625 C12.705 17.4525 13.035 11.8425 13.375 6.0625 C15.355 6.0625 17.335 6.0625 19.375 6.0625 C19.375 25.2025 19.375 44.3425 19.375 64.0625 C8.815 64.0625 -1.745 64.0625 -12.625 64.0625 C-10.625 60.0625 -10.625 60.0625 -7.625 58.0625 C-5.44848633 57.74365234 -5.44848633 57.74365234 -2.95703125 57.6484375 C-1.61801758 57.59042969 -1.61801758 57.59042969 -0.25195312 57.53125 C0.67681641 57.5003125 1.60558594 57.469375 2.5625 57.4375 C3.97305664 57.37949219 3.97305664 57.37949219 5.41210938 57.3203125 C7.73275066 57.22607326 10.05384841 57.14319877 12.375 57.0625 C12.705 51.1225 13.035 45.1825 13.375 39.0625 C11.725 39.0625 10.075 39.0625 8.375 39.0625 C8.045 43.3525 7.715 47.6425 7.375 52.0625 C6.36179687 52.11148438 5.34859375 52.16046875 4.3046875 52.2109375 C2.95310089 52.28602564 1.60153962 52.36157081 0.25 52.4375 C-0.41515625 52.4684375 -1.0803125 52.499375 -1.765625 52.53125 C-6.04549102 52.78300682 -9.60104399 53.64140029 -13.625 55.0625 C-13.72648186 48.175828 -13.7964999 41.28934908 -13.84472656 34.40209961 C-13.86483265 32.05957839 -13.89212166 29.7171073 -13.92675781 27.37475586 C-13.97531841 24.00622177 -13.99797922 20.63835169 -14.015625 17.26953125 C-14.03627014 16.22352249 -14.05691528 15.17751373 -14.07818604 14.09980774 C-14.08043044 6.81489684 -14.08043044 6.81489684 -11.72558594 2.92456055 C-7.96958446 -0.40494007 -4.7899965 -0.05701176 0 0 Z " fill="#B4F4FE" transform="translate(64.625,15.9375)"/>
<path d="M0 0 C0.99 0 1.98 0 3 0 C3.268125 0.639375 3.53625 1.27875 3.8125 1.9375 C4.88667752 4.33131686 4.88667752 4.33131686 8 5 C7.67 6.32 7.34 7.64 7 9 C6.01 9 5.02 9 4 9 C4 9.66 4 10.32 4 11 C4.66 11.33 5.32 11.66 6 12 C6 13.65 6 15.3 6 17 C6.61875 17.268125 7.2375 17.53625 7.875 17.8125 C10 19 10 19 12 22 C12.24050903 24.22099304 12.24050903 24.22099304 12.22705078 26.83862305 C12.22689972 27.8194133 12.22674866 28.80020355 12.22659302 29.81071472 C12.21627045 30.86704605 12.20594788 31.92337738 12.1953125 33.01171875 C12.1924826 34.09508011 12.18965271 35.17844147 12.18673706 36.29463196 C12.17553091 39.75903308 12.15042534 43.22317685 12.125 46.6875 C12.11497077 49.03450148 12.10584482 51.381507 12.09765625 53.72851562 C12.07559016 59.48576507 12.04210827 65.24286415 12 71 C10.02 70.34 8.04 69.68 6 69 C1.05 68.67 -3.9 68.34 -9 68 C-9 50.84 -9 33.68 -9 16 C-7.35 15.34 -5.7 14.68 -4 14 C-3.67 13.34 -3.34 12.68 -3 12 C-2.34 12 -1.68 12 -1 12 C-1.66 11.401875 -2.32 10.80375 -3 10.1875 C-5 8 -5 8 -5 5 C-4.01 4.67 -3.02 4.34 -2 4 C-0.79117904 1.99983534 -0.79117904 1.99983534 0 0 Z " fill="#D6F9FE" transform="translate(33,0)"/>
<path d="M0 0 C1.98 0 3.96 0 6 0 C6.33 16.83 6.66 33.66 7 51 C13.27 51.33 19.54 51.66 26 52 C31 55 31 55 32 58 C21.44 58 10.88 58 0 58 C-0.33 55.36 -0.66 52.72 -1 50 C-1.66 49.67 -2.32 49.34 -3 49 C-3 45.04 -3 41.08 -3 37 C-2.01 36.505 -2.01 36.505 -1 36 C-0.67 24.12 -0.34 12.24 0 0 Z " fill="#F0FCFE" transform="translate(12,22)"/>
<path d="M0 0 C0.99 0 1.98 0 3 0 C3.268125 0.639375 3.53625 1.27875 3.8125 1.9375 C4.88667752 4.33131686 4.88667752 4.33131686 8 5 C7.67 6.32 7.34 7.64 7 9 C6.01 9 5.02 9 4 9 C3.67 10.32 3.34 11.64 3 13 C-0.78520613 12.45925627 -2.59177555 10.92427254 -5 8 C-5 7.01 -5 6.02 -5 5 C-4.01 4.67 -3.02 4.34 -2 4 C-0.79117904 1.99983534 -0.79117904 1.99983534 0 0 Z " fill="#10D0E4" transform="translate(33,0)"/>
<path d="M0 0 C2 0 2 0 3.625 1.375 C5 3 5 3 5 5 C3.37373596 6.38232443 1.7074998 7.71937515 0 9 C-0.33 8.01 -0.66 7.02 -1 6 C-1.99 5.67 -2.98 5.34 -4 5 C-4 4.34 -4 3.68 -4 3 C-3.01 2.67 -2.02 2.34 -1 2 C-0.67 1.34 -0.34 0.68 0 0 Z " fill="#1BD1E5" transform="translate(63,36)"/>
<path d="M0 0 C1.625 1.375 1.625 1.375 3 3 C3 5 3 5 1.625 6.625 C0 8 0 8 -2 8 C-3.625 6.625 -3.625 6.625 -5 5 C-5 3 -5 3 -3.625 1.375 C-2 0 -2 0 0 0 Z " fill="#16D0E3" transform="translate(35,50)"/>
</svg>
