<?xml version="1.0" encoding="UTF-8"?>
<svg version="1.1" xmlns="http://www.w3.org/2000/svg" width="600" height="242">
<path d="M0 0 C30 0 30 0 38 4 C43.18877099 11.58358837 43.27538489 18.18610849 43.35009766 27.03149414 C43.36659775 28.46004597 43.39380954 29.88851727 43.43212891 31.31665039 C43.84279507 46.72734451 43.84279507 46.72734451 38 53 C34.71875 56 34.71875 56 32 56 C36.62 69.2 41.24 82.4 46 96 C46.50789063 92.47054687 47.01578125 88.94109375 47.5390625 85.3046875 C50.7411151 63.10494649 53.94499397 40.90622723 57.4375 18.75 C57.5625592 17.95140564 57.68761841 17.15281128 57.81646729 16.33001709 C58.16488168 14.1101263 58.51710552 11.89088299 58.87109375 9.671875 C59.06630615 8.4456543 59.26151855 7.21943359 59.46264648 5.95605469 C60 3 60 3 61 0 C68.26 0 75.52 0 83 0 C84.36948586 8.47766868 85.73531778 16.95590445 87.09541702 25.43508339 C87.72769439 29.37600886 88.36132534 33.31670474 88.99853516 37.25683594 C91.61600386 53.44837288 94.17066831 69.64260216 96.359375 85.8984375 C96.52802063 87.13856598 96.69666626 88.37869446 96.87042236 89.65640259 C97.02114197 90.80281219 97.17186157 91.9492218 97.32714844 93.13037109 C97.45812927 94.12426849 97.58911011 95.11816589 97.72406006 96.1421814 C98.00797024 99.0825451 98 102.04596146 98 105 C92.72 105 87.44 105 82 105 C80.5683485 97.65085565 79.5816538 90.46455715 79 83 C74.38 83.33 69.76 83.66 65 84 C64.01 90.93 63.02 97.86 62 105 C51.77 105 41.54 105 31 105 C27.625 96 27.625 96 26.6496582 92.6953125 C26.42669067 91.94507813 26.20372314 91.19484375 25.97399902 90.421875 C25.75183716 89.66390625 25.52967529 88.9059375 25.30078125 88.125 C25.08756226 87.40570313 24.87434326 86.68640625 24.65466309 85.9453125 C23.8707817 83.29780868 23.09192261 80.64881991 22.3125 78 C20.559375 72.06 18.80625 66.12 17 60 C16.67 74.85 16.34 89.7 16 105 C10.72 105 5.44 105 0 105 C0 70.35 0 35.7 0 0 Z M16 16 C16 25.24 16 34.48 16 44 C23.241376 44.68647164 23.241376 44.68647164 25.97729492 42.8125 C27.32622731 40.42184016 27.37249712 38.74184734 27.36328125 36 C27.36263672 35.030625 27.36199219 34.06125 27.36132812 33.0625 C27.34521484 32.051875 27.32910156 31.04125 27.3125 30 C27.31572266 28.989375 27.31894531 27.97875 27.32226562 26.9375 C27.43008802 21.13093825 27.43008802 21.13093825 25 16 C22.03 16 19.06 16 16 16 Z M71 31 C70.42520536 35.16191069 69.85572462 39.32450472 69.29101562 43.48779297 C69.09844121 44.90205175 68.90445216 46.31611869 68.70898438 47.72998047 C68.42720423 49.77001122 68.15063012 51.81069282 67.875 53.8515625 C67.70742187 55.07697754 67.53984375 56.30239258 67.3671875 57.56494141 C67.0273691 60.74396058 66.93159628 63.80640148 67 67 C70.3 67 73.6 67 77 67 C76.5488098 62.87418663 76.08773086 58.74953368 75.625 54.625 C75.49867188 53.46871094 75.37234375 52.31242187 75.2421875 51.12109375 C74.47483608 44.3300337 73.48550956 37.67239787 72 31 C71.67 31 71.34 31 71 31 Z " fill="#4C5C66" transform="translate(83,53)"/>
<path d="M0 0 C5.61 0 11.22 0 17 0 C17.2673999 2.04944824 17.5347998 4.09889648 17.81030273 6.21044922 C18.69308345 12.9722913 19.57983288 19.73360858 20.46855068 26.49467278 C21.00739894 30.5949962 21.54489775 34.69548723 22.0793457 38.79638672 C22.59490482 42.75196602 23.11396529 46.70707132 23.6354847 50.66186905 C23.83410179 52.17281783 24.03144415 53.68393474 24.22750664 55.19521713 C24.50175988 57.30752099 24.78048811 59.41918843 25.06030273 61.53076172 C25.21796616 62.73433319 25.37562958 63.93790466 25.53807068 65.177948 C25.8470583 67.94149841 25.8470583 67.94149841 27 70 C27.11053207 69.15253204 27.22106415 68.30506409 27.33494568 67.43191528 C28.37587664 59.45591086 29.42026001 51.48036783 30.46855068 43.50532722 C31.00739894 39.4050038 31.54489775 35.30451277 32.0793457 31.20361328 C32.59490482 27.24803398 33.11396529 23.29292868 33.6354847 19.33813095 C33.83410179 17.82718217 34.03144415 16.31606526 34.22750664 14.80478287 C34.50175988 12.69247901 34.78048811 10.58081157 35.06030273 8.46923828 C35.21796616 7.26566681 35.37562958 6.06209534 35.53807068 4.822052 C36 2 36 2 37 0 C42.28 0 47.56 0 53 0 C51.53285864 15.14541314 49.45565463 30.1432474 47.1875 45.1875 C46.82984167 47.5795545 46.47242161 49.97164464 46.11523438 52.36376953 C43.4878603 69.92137923 40.7922545 87.46786355 38 105 C30.74 105 23.48 105 16 105 C12.97698078 90.77345909 10.77934479 76.43365148 8.5625 62.0625 C8.36334991 60.77829163 8.16419983 59.49408325 7.95901489 58.17095947 C4.96203975 38.81642054 2.19148591 19.46284688 0 0 Z " fill="#4C5C66" transform="translate(176,53)"/>
<path d="M0 0 C12.87 0 25.74 0 39 0 C39 5.28 39 10.56 39 16 C31.41 16 23.82 16 16 16 C16 25.24 16 34.48 16 44 C22.6 44 29.2 44 36 44 C36 49.28 36 54.56 36 60 C29.4 60 22.8 60 16 60 C16 69.57 16 79.14 16 89 C23.59 89 31.18 89 39 89 C39 94.28 39 99.56 39 105 C26.13 105 13.26 105 0 105 C0 70.35 0 35.7 0 0 Z " fill="#4C5C66" transform="translate(232,53)"/>
<path d="M0 0 C0.042721 1.66611905 0.04063832 3.33382885 0 5 C-1.86201223 6.86201223 -4.97807674 6.39756539 -7.48046875 6.578125 C-8.87164474 6.68448568 -10.26275548 6.7917023 -11.65380859 6.8996582 C-12.76160675 6.98432846 -12.76160675 6.98432846 -13.89178467 7.07070923 C-60.98973029 9.28460278 -60.98973029 9.28460278 -101.3125 30 C-103.44272885 33.78707352 -103.66635209 35.70573101 -103 40 C-98.95703762 50.65871901 -90.34556699 59.50647166 -82.9375 68 C-64.5456003 89.21124621 -64.5456003 89.21124621 -63.4375 103.0625 C-64.41597818 109.91184724 -67.03705355 115.82871707 -72.5 120.25 C-103.6039316 140.81218942 -151.92619563 144.27715394 -187.63134766 137.50488281 C-200.38005492 134.78747129 -214.4160172 130.2312417 -222 119 C-223.61170388 115.77659223 -223.59542551 112.48558081 -223 109 C-220.19560414 105.31422258 -217.47741357 103.2012573 -213 102 C-209.6875 101.875 -209.6875 101.875 -207 102 C-206.67 103.65 -206.34 105.3 -206 107 C-209.3 108.32 -212.6 109.64 -216 111 C-216 114.08719758 -215.70379625 116.23064464 -213.57421875 118.55859375 C-201.45865871 128.21592422 -183.32528361 132.49753169 -168 133 C-167.35353516 133.02578125 -166.70707031 133.0515625 -166.04101562 133.078125 C-138.80362669 134.03972743 -99.21063541 131.85252019 -77 114 C-72.67426522 109.74205181 -72.67426522 109.74205181 -70.9453125 104.1875 C-71.90542433 92.49918211 -78.55430891 84.58851809 -86 76 C-91.7375853 69.37498456 -97.36016508 62.73076695 -102.5 55.625 C-102.90919678 55.06643311 -103.31839355 54.50786621 -103.73999023 53.93237305 C-108.74497732 46.88012937 -111.00838236 40.67208825 -110 32 C-107.57793043 24.27965326 -100.6382643 19.67216818 -93.8125 15.9375 C-65.78542304 2.846592 -30.69744176 -0.7717234 0 0 Z " fill="#0090C3" transform="translate(420,69)"/>
<path d="M0 0 C14.52 0 29.04 0 44 0 C44 5.28 44 10.56 44 16 C39.38 16 34.76 16 30 16 C30 45.37 30 74.74 30 105 C24.72 105 19.44 105 14 105 C14 75.63 14 46.26 14 16 C9.38 16 4.76 16 0 16 C0 10.72 0 5.44 0 0 Z " fill="#4C5C66" transform="translate(36,53)"/>
<path d="M0 0 C2.125 0.9375 2.125 0.9375 4 2 C3.44495657 6.75881501 1.26715613 10.30803763 -1.1875 14.3125 C-2.09063625 15.81593047 -2.99292859 17.3198681 -3.89453125 18.82421875 C-4.63437256 20.05277588 -4.63437256 20.05277588 -5.38916016 21.30615234 C-8.4274576 26.38717296 -11.39649579 31.50878345 -14.375 36.625 C-15.26674927 38.15314331 -15.26674927 38.15314331 -16.17651367 39.7121582 C-19.14138944 44.79486243 -22.09139906 49.8848742 -25 55 C-23.91589844 54.78085938 -22.83179688 54.56171875 -21.71484375 54.3359375 C-17.2461606 53.43511466 -12.77505731 52.54667633 -8.30371094 51.65917969 C-6.02761135 51.20503626 -3.75226016 50.74713118 -1.47753906 50.28613281 C22.68717811 45.39176992 46.8138103 41.38415408 71.4375 39.6875 C72.70601807 39.59887695 73.97453613 39.51025391 75.28149414 39.41894531 C80.74714977 39.08438161 85.60020682 38.94260977 91 40 C91 41.65 91 43.3 91 45 C87.36877551 45.8117343 83.8943399 46.18715291 80.1796875 46.359375 C53.29319586 47.77188996 27.03208683 51.52422305 0.6875 57.0625 C-0.10229248 57.22808411 -0.89208496 57.39366821 -1.70581055 57.56427002 C-6.13845029 58.50137249 -10.55303725 59.4954222 -14.96124268 60.54119873 C-16.95044249 60.9888476 -18.94240925 61.36120044 -20.94873047 61.72314453 C-27.55045004 63.13473954 -31.36488334 64.4775137 -35.15625 70.234375 C-36.31584885 72.38255272 -37.42871118 74.55644642 -38.5 76.75 C-39.4333529 78.50768762 -40.36677135 80.26534563 -41.30477905 82.02055359 C-42.26017255 83.82085342 -43.19602663 85.63034536 -44.12988281 87.44189453 C-47.00642744 92.97427463 -50.2023995 98.32140092 -53.375 103.6875 C-54.52133743 105.64944513 -55.66718697 107.61167543 -56.8125 109.57421875 C-60.82226687 116.41462141 -64.89185333 123.21829757 -69 130 C-70.65 129.67 -72.3 129.34 -74 129 C-73.46587447 124.57624107 -72.41163942 121.46768217 -70.1484375 117.640625 C-69.55119873 116.6192041 -68.95395996 115.5977832 -68.33862305 114.54541016 C-67.69062744 113.4579248 -67.04263184 112.37043945 -66.375 111.25 C-65.36224438 109.52337909 -64.34950348 107.79674935 -63.33763123 106.0696106 C-62.28045262 104.26772971 -61.21935263 102.4682019 -60.15771484 100.66894531 C-56.62763591 94.6775031 -53.16099144 88.64935001 -49.6875 82.625 C-49.04796387 81.5205957 -48.40842773 80.41619141 -47.74951172 79.27832031 C-47.15541504 78.25061523 -46.56131836 77.22291016 -45.94921875 76.1640625 C-45.16550903 74.80982178 -45.16550903 74.80982178 -44.3659668 73.42822266 C-43.1756884 71.312314 -42.06149314 69.18271711 -41 67 C-42.15935059 67.34780518 -43.31870117 67.69561035 -44.51318359 68.05395508 C-76.19287109 77.55786133 -76.19287109 77.55786133 -78.57293701 78.26211548 C-80.27398841 78.77927531 -81.96731207 79.32222603 -83.65411377 79.88412476 C-84.96155548 80.31019516 -84.96155548 80.31019516 -86.29541016 80.74487305 C-87.07776031 81.008582 -87.86011047 81.27229095 -88.66616821 81.54399109 C-91.39267157 82.07672435 -93.33317049 81.69929335 -96 81 C-95.67 79.35 -95.34 77.7 -95 76 C-90.86938667 74.67581364 -86.73756691 73.35565119 -82.60351562 72.04223633 C-79.1000835 70.92860056 -75.60240495 69.79878876 -72.10742188 68.65893555 C-57.31840111 63.87881521 -57.31840111 63.87881521 -50.0703125 62.74609375 C-40.50427832 61.3138165 -40.50427832 61.3138165 -32.96044922 55.66943359 C-28.78528395 49.59176816 -25.68394382 43.03810456 -22.60888672 36.35498047 C-20.06909408 31.05879983 -17.04546194 26.0794772 -14 21.0625 C-12.97815224 19.34565545 -11.95727537 17.62823257 -10.9375 15.91015625 C-10.45667969 15.10852051 -9.97585938 14.30688477 -9.48046875 13.48095703 C-8.43109299 11.72242199 -7.39315854 9.95703651 -6.36328125 8.18701172 C-5.56470703 6.82406982 -5.56470703 6.82406982 -4.75 5.43359375 C-4.27046875 4.60786865 -3.7909375 3.78214355 -3.296875 2.93139648 C-2 1 -2 1 0 0 Z " fill="#0090C3" transform="translate(445,62)"/>
<path d="M0 0 C5.28 0 10.56 0 16 0 C16 29.37 16 58.74 16 89 C23.92 89 31.84 89 40 89 C40 94.28 40 99.56 40 105 C26.8 105 13.6 105 0 105 C0 70.35 0 35.7 0 0 Z " fill="#4C5C66" transform="translate(276,53)"/>
<path d="M0 0 C0.66 0.66 1.32 1.32 2 2 C1.9765625 4.1640625 1.9765625 4.1640625 1.625 6.625 C1.51414062 7.44226563 1.40328125 8.25953125 1.2890625 9.1015625 C1.14597656 10.04128906 1.14597656 10.04128906 1 11 C-0.65 11.33 -2.3 11.66 -4 12 C-5 7.125 -5 7.125 -5 6 C-7.7532572 6.76045204 -10.50218233 7.53283466 -13.25 8.3125 C-14.41595703 8.63250977 -14.41595703 8.63250977 -15.60546875 8.95898438 C-19.62012327 10.10847947 -22.85062015 11.11306848 -26 14 C-25.42417503 20.19011847 -23.05414445 23.19122043 -18.44921875 27.24609375 C-17.53785156 27.96925781 -16.62648438 28.69242188 -15.6875 29.4375 C-14.72070312 30.21609375 -13.75390625 30.9946875 -12.7578125 31.796875 C-11.12771928 33.09910244 -9.49754469 34.40122805 -7.8671875 35.703125 C-3.73142082 39.10483786 0.26584806 42.48853741 1.4140625 47.98046875 C1.68521268 51.78370675 1.30815267 53.64104079 -1.1796875 56.5390625 C-9.74878571 64.01625346 -20.96404228 67.16840486 -31.625 70.5 C-32.77572998 70.86262939 -33.92645996 71.22525879 -35.11206055 71.59887695 C-36.20172119 71.92718506 -37.29138184 72.25549316 -38.4140625 72.59375 C-39.3932666 72.88958984 -40.3724707 73.18542969 -41.38134766 73.49023438 C-44.03302361 74.00642861 -45.48462393 73.89574469 -48 73 C-48 71.35 -48 69.7 -48 68 C-47.03698975 67.68772461 -46.07397949 67.37544922 -45.08178711 67.05371094 C-41.4804151 65.88361531 -37.88245746 64.7033067 -34.28540039 63.52001953 C-32.73356709 63.01107888 -31.18084342 62.50484423 -29.62719727 62.00146484 C-27.38313233 61.2738547 -25.14254078 60.53629598 -22.90234375 59.796875 C-22.21663803 59.57690857 -21.53093231 59.35694214 -20.82444763 59.13031006 C-17.36859563 57.97901839 -14.27785543 56.67214557 -11.13110352 54.82519531 C-8 53 -8 53 -6 53 C-5.74930087 50.62570704 -5.74930087 50.62570704 -6 48 C-7.43750191 46.31201173 -7.43750191 46.31201173 -9 45 C-9 44.34 -9 43.68 -9 43 C-9.55816406 42.76023438 -10.11632812 42.52046875 -10.69140625 42.2734375 C-13.50224281 40.72295913 -15.5849491 38.80718126 -17.9375 36.625 C-20.452825 34.30017102 -22.93661695 32.04931877 -25.640625 29.9453125 C-29.52501369 26.74262116 -32.3867543 22.87062425 -33.453125 17.87890625 C-33.63177673 14.5036646 -33.11191999 12.20518666 -31.5 9.25 C-23.61343912 2.15209521 -10.38871784 -2.37783383 0 0 Z " fill="#0090C3" transform="translate(570,104)"/>
<path d="M0 0 C1.1875 2.1875 1.1875 2.1875 2 5 C-0.25642216 10.86669762 -5.49332892 14.77619331 -10.984375 17.45703125 C-16.97558276 19.99233502 -22.20045319 22.15881686 -28.75 22.0625 C-29.54921875 22.05347656 -30.3484375 22.04445312 -31.171875 22.03515625 C-31.77515625 22.02355469 -32.3784375 22.01195312 -33 22 C-33.66 23.98 -34.32 25.96 -35 28 C-29.03960277 28.31370512 -24.03186567 27.17565442 -18.3125 25.5625 C-17.47138672 25.33240234 -16.63027344 25.10230469 -15.76367188 24.86523438 C-14.20370298 24.43843876 -12.64472696 24.00798311 -11.0871582 23.57250977 C-10.398396 23.38358154 -9.70963379 23.19465332 -9 23 C-7.93881958 22.68470337 -7.93881958 22.68470337 -6.85620117 22.36303711 C-5 22 -5 22 -3 23 C-3 24.65 -3 26.3 -3 28 C-13.11863138 32.59301931 -26.93963254 37.91545206 -37.9375 33.9375 C-40 32 -40 32 -40.9375 28.75 C-41.004747 24.71517979 -40.24980684 21.81885425 -39 18 C-38.63729412 16.00511766 -38.29359301 14.0062189 -38 12 C-36.845 11.773125 -35.69 11.54625 -34.5 11.3125 C-31.33449616 10.52665814 -28.95800366 9.4966285 -26.25 7.6875 C-17.9921136 2.24701014 -9.96123823 -0.9917162 0 0 Z M-14.35546875 8.43359375 C-15.6380304 9.09148807 -16.91524057 9.75989743 -18.1875 10.4375 C-18.84169922 10.77587891 -19.49589844 11.11425781 -20.16992188 11.46289062 C-21.78459299 12.29969098 -23.39292763 13.14869746 -25 14 C-21.4452649 15.1849117 -20.89162368 14.78854631 -17.625 13.25 C-16.43970703 12.693125 -16.43970703 12.693125 -15.23046875 12.125 C-12.73900572 10.86836015 -10.34503794 9.51292771 -8 8 C-11.09227424 6.60061807 -11.09227424 6.60061807 -14.35546875 8.43359375 Z " fill="#0090C3" transform="translate(535,133)"/>
<path d="M0 0 C0.474375 0.474375 0.94875 0.94875 1.4375 1.4375 C1.125 3.375 1.125 3.375 0.4375 5.4375 C-2.5625 6.4375 -2.5625 6.4375 -6.3125 5.3125 C-9.96006786 4.34735887 -12.32306481 4.46574979 -15.78125 6.2734375 C-28.6262886 14.6677829 -34.78973778 28.19913031 -41.5625 41.4375 C-42.2225 41.4375 -42.8825 41.4375 -43.5625 41.4375 C-42.23399163 32.75368819 -40.45827801 24.23471416 -38.4375 15.6875 C-38.16035156 14.5015625 -37.88320313 13.315625 -37.59765625 12.09375 C-36.92265133 9.20752206 -36.24422086 6.32214761 -35.5625 3.4375 C-33.9125 3.1075 -32.2625 2.7775 -30.5625 2.4375 C-29.9025 4.0875 -29.2425 5.7375 -28.5625 7.4375 C-28.08941406 6.96699219 -27.61632812 6.49648437 -27.12890625 6.01171875 C-19.64481237 -1.03470882 -9.76505342 -5.95430087 0 0 Z " fill="#0090C3" transform="translate(475.5625,143.5625)"/>
<path d="M0 0 C3.71198163 -0.34530062 5.57283878 -0.25629673 8.8125 1.6875 C11.32188628 4.34027978 12 5.36389371 12 9 C9.58773079 16.37082259 5.96489274 21.18000483 -0.875 24.875 C-5.09495506 26.81881288 -8.30834845 27.73594534 -13 27 C-16.5386994 25.34860695 -17.81070153 24.28394771 -20 21 C-20 15.43916742 -18.35585116 12.48815447 -14.68359375 8.578125 C-10.83435236 4.97001938 -8.34197005 3 -3 3 C-2.67 4.65 -2.34 6.3 -2 8 C-2.62648438 8.44730469 -3.25296875 8.89460937 -3.8984375 9.35546875 C-4.71570313 9.96003906 -5.53296875 10.56460938 -6.375 11.1875 C-7.18710937 11.77917969 -7.99921875 12.37085938 -8.8359375 12.98046875 C-11.20952387 15.19553039 -12.03610141 16.93353141 -13 20 C-6.66343797 19.66649674 -2.68202826 18.37832913 2 14 C4.36980013 11.04622502 4.36980013 11.04622502 4 7 C2.35 6.34 0.7 5.68 -1 5 C-0.67 3.35 -0.34 1.7 0 0 Z " fill="#0090C3" transform="translate(419,152)"/>
<path d="M0 0 C1.32 0.33 2.64 0.66 4 1 C4.97502945 3.57593987 5.12379227 4.68369069 4.10375977 7.29003906 C3.63768311 8.10698242 3.17160645 8.92392578 2.69140625 9.765625 C2.19189453 10.65507812 1.69238281 11.54453125 1.17773438 12.4609375 C0.64470703 13.38132813 0.11167969 14.30171875 -0.4375 15.25 C-0.96666016 16.18585938 -1.49582031 17.12171875 -2.04101562 18.0859375 C-3.34987106 20.39706962 -4.66975947 22.70113158 -6 25 C-7.32 24.67 -8.64 24.34 -10 24 C-10.75851424 21.75549306 -11.13463131 20.43669167 -10.42675781 18.140625 C-10.10545898 17.51671875 -9.78416016 16.8928125 -9.453125 16.25 C-9.1025 15.5590625 -8.751875 14.868125 -8.390625 14.15625 C-7.82601563 13.08890625 -7.82601563 13.08890625 -7.25 12 C-6.70859375 10.93265625 -6.70859375 10.93265625 -6.15625 9.84375 C-4.34866064 6.33335907 -2.5208114 3.06326449 0 0 Z " fill="#0090C3" transform="translate(484,144)"/>
<path d="M0 0 C2.625 -0.1875 2.625 -0.1875 5 0 C4.50769231 6.4 4.50769231 6.4 1.9375 9.4375 C0.9784375 10.2109375 0.9784375 10.2109375 0 11 C-0.99 10.67 -1.98 10.34 -3 10 C-2.25 3.375 -2.25 3.375 0 0 Z " fill="#0090C3" transform="translate(491,132)"/>
</svg>
