<?xml version="1.0" standalone="no"?>
<!DOCTYPE svg PUBLIC "-//W3C//DTD SVG 20010904//EN"
 "http://www.w3.org/TR/2001/REC-SVG-20010904/DTD/svg10.dtd">
<svg version="1.0" xmlns="http://www.w3.org/2000/svg"
 width="2048.000000pt" height="2048.000000pt" viewBox="0 0 2048.000000 2048.000000"
 preserveAspectRatio="xMidYMid meet">

<g transform="translate(0.000000,2048.000000) scale(0.100000,-0.100000)"
fill="#000000" stroke="none">
<path d="M2550 11503 c-181 -18 -362 -88 -495 -189 -131 -100 -211 -222 -257
-392 -27 -101 -29 -295 -4 -397 37 -155 135 -302 261 -395 136 -99 216 -136
530 -245 241 -83 339 -129 383 -179 52 -59 66 -95 67 -167 0 -56 -4 -72 -30
-113 -42 -68 -95 -102 -195 -127 -71 -18 -102 -21 -190 -16 -250 15 -464 121
-683 339 -80 79 -115 108 -134 108 l-24 0 3 -343 c2 -270 6 -347 16 -360 21
-25 226 -121 332 -156 197 -63 280 -75 545 -75 228 0 245 1 338 27 290 78 465
213 572 440 102 216 105 507 7 702 -110 221 -282 336 -722 485 -275 93 -381
141 -438 199 -91 92 -78 238 28 316 60 44 132 60 270 59 113 -1 135 -4 225
-34 147 -48 338 -164 434 -264 24 -25 44 -36 63 -36 l28 0 0 313 0 312 -38 17
c-20 10 -65 31 -100 47 -102 48 -261 93 -412 116 -85 13 -288 18 -380 8z"/>
<path d="M10679 11373 c0 -5 0 -447 0 -983 1 -536 1 -1092 1 -1235 l0 -260
225 -1 225 -2 0 669 c0 437 3 670 10 674 6 3 31 -27 56 -67 166 -265 549 -884
646 -1043 64 -104 124 -200 133 -213 17 -23 18 -23 183 -18 91 4 167 8 169 9
1 2 3 557 3 1233 l0 1229 -220 3 -220 2 0 -640 c0 -352 -4 -640 -8 -640 -8 0
-37 46 -127 198 -47 81 -310 520 -468 782 -140 232 -179 293 -192 302 -13 10
-415 10 -416 1z"/>
<path d="M4360 10788 c-46 -128 -109 -309 -141 -403 -31 -93 -96 -280 -143
-415 -47 -135 -117 -337 -156 -450 -40 -113 -104 -297 -144 -410 -40 -113 -71
-208 -69 -212 2 -5 118 -8 258 -8 l254 0 15 53 c9 28 32 102 50 162 l34 110
321 3 320 2 10 -37 c6 -21 26 -87 46 -148 19 -60 35 -115 35 -121 0 -7 6 -14
13 -16 6 -2 134 -4 282 -3 246 0 270 1 267 17 -3 22 -256 747 -322 923 -29 77
-69 190 -90 250 -140 403 -190 544 -257 728 l-76 207 -212 0 -212 0 -83 -232z
m335 -658 c25 -91 71 -243 101 -338 30 -94 54 -179 54 -187 0 -13 -31 -15
-215 -15 -143 0 -215 4 -215 10 0 6 11 46 24 88 51 162 105 339 121 397 41
152 67 227 75 219 4 -5 29 -83 55 -174z"/>
<path d="M5762 9958 l3 -1063 259 3 259 3 2 72 c0 40 2 246 3 460 l2 387 280
0 280 0 0 195 0 195 -285 0 -285 0 0 204 0 203 46 7 c26 3 174 6 330 6 l284 0
0 195 0 195 -590 0 -590 0 2 -1062z"/>
<path d="M7456 10978 c-18 -50 -117 -333 -186 -533 -26 -77 -91 -261 -145
-410 -207 -577 -395 -1115 -395 -1130 0 -9 63 -11 258 -8 l257 4 18 62 c10 34
32 106 49 160 l30 97 319 0 c295 0 320 -1 327 -17 4 -10 27 -83 52 -163 l46
-145 277 -3 c152 -1 277 1 277 6 0 13 -113 342 -215 627 -53 149 -131 369
-174 490 -43 121 -104 292 -136 380 -109 307 -153 431 -185 528 l-32 97 -213
0 -213 0 -16 -42z m232 -731 c7 -23 44 -150 83 -282 39 -132 80 -267 90 -299
16 -46 17 -61 8 -67 -20 -12 -407 -11 -414 1 -4 6 7 52 24 103 16 50 59 193
95 317 90 314 88 310 114 227z"/>
<path d="M8800 10989 c0 -16 0 -494 0 -1061 l0 -1033 259 0 258 0 8 204 c3
112 5 306 4 430 l-3 226 46 3 c44 3 48 1 64 -30 9 -18 38 -69 64 -113 26 -44
89 -152 140 -240 51 -88 124 -212 161 -275 37 -63 82 -142 101 -175 l34 -60
307 -3 c169 -1 307 1 307 5 0 5 -10 25 -23 46 -52 88 -222 364 -351 570 -76
122 -156 251 -177 287 l-39 64 78 40 c52 27 100 63 148 111 122 122 166 230
167 415 0 133 -19 224 -66 314 -62 116 -187 216 -331 262 -93 30 -118 31 -768
37 l-388 4 0 -28z m880 -380 c96 -35 142 -104 148 -223 4 -74 1 -86 -25 -136
-31 -60 -95 -111 -161 -130 -20 -5 -99 -10 -174 -10 l-138 0 0 261 0 262 158
-6 c89 -3 172 -10 192 -18z"/>
<path d="M13196 11008 c-26 -81 -97 -288 -206 -593 -73 -203 -156 -440 -185
-525 -30 -85 -88 -252 -130 -370 -68 -191 -215 -618 -215 -624 0 -1 116 -2
257 -2 l257 1 8 35 c5 19 27 92 49 163 l40 127 318 0 319 0 15 -37 c8 -21 29
-87 47 -148 18 -60 37 -118 42 -127 8 -17 32 -18 283 -18 151 0 275 3 275 6 0
14 -116 351 -212 614 -55 151 -133 370 -173 485 -40 116 -115 327 -166 470
-50 143 -115 325 -143 405 l-51 145 -213 3 c-165 2 -213 0 -216 -10z m240
-828 c18 -63 64 -218 103 -345 38 -126 67 -233 65 -237 -7 -11 -412 -10 -418
0 -5 9 22 105 94 337 22 72 54 183 72 248 17 65 36 116 41 114 5 -1 24 -54 43
-117z"/>
<path d="M14522 9959 l3 -1061 215 -1 215 -1 -3 689 c-2 433 1 686 7 680 5 -6
109 -309 232 -675 122 -366 226 -673 230 -682 8 -15 22 -16 117 -12 59 3 107
7 108 7 0 1 30 97 67 212 126 399 376 1158 384 1166 4 4 7 -306 5 -690 l-3
-698 243 -1 c134 0 251 2 261 4 16 5 17 64 17 1065 l0 1059 -332 -2 -333 -3
-172 -515 c-94 -283 -180 -543 -190 -578 -10 -34 -22 -61 -28 -59 -10 3 -41
92 -277 787 l-124 365 -322 3 -322 2 2 -1061z"/>
<path d="M17436 10828 c-70 -201 -81 -233 -246 -698 -56 -157 -148 -418 -205
-580 -57 -162 -131 -371 -164 -464 -34 -94 -61 -175 -61 -180 0 -17 512 -11
520 6 4 7 27 79 51 160 l44 148 322 0 c298 0 322 -1 327 -17 8 -30 67 -226 80
-268 l13 -40 276 0 c212 0 277 3 277 12 0 7 -29 93 -64 190 -109 300 -270 755
-446 1258 -92 264 -183 521 -201 570 l-34 90 -211 3 -211 2 -67 -192z m278
-571 c3 -18 47 -167 96 -332 50 -165 90 -308 90 -317 0 -17 -16 -18 -210 -18
-153 0 -210 3 -210 12 0 6 20 75 44 152 25 78 70 229 101 336 31 107 59 198
61 202 9 15 22 -1 28 -35z"/>
</g>
</svg>
